<svg width="180" height="346" viewBox="0 0 180 346" fill="none" xmlns="http://www.w3.org/2000/svg">
<ellipse cx="5.5" cy="9.5" rx="5.5" ry="5.5" transform="rotate(-90 5.5 9.5)" fill="#C4C4C4"/>
<ellipse cx="5.5" cy="121.5" rx="5.5" ry="5.5" transform="rotate(-90 5.5 121.5)" fill="#C4C4C4"/>
<ellipse cx="5.5" cy="233.5" rx="5.5" ry="5.5" transform="rotate(-90 5.5 233.5)" fill="#C4C4C4"/>
<line x1="5" y1="121.5" x2="5" y2="14.5" stroke="#C4C4C4"/>
<line x1="5" y1="233.5" x2="5" y2="126.5" stroke="#C4C4C4"/>
<line x1="5" y1="345.5" x2="5" y2="238.5" stroke="#C4C4C4"/>
<path d="M28.163 15H21.741V13.219L24.536 10.827C24.7873 10.6103 24.9997 10.4153 25.173 10.242C25.3463 10.06 25.485 9.88667 25.589 9.722C25.7017 9.54867 25.7797 9.37967 25.823 9.215C25.875 9.05033 25.901 8.87267 25.901 8.682V8.5C25.901 8.32667 25.8663 8.175 25.797 8.045C25.7277 7.915 25.6367 7.80667 25.524 7.72C25.4113 7.63333 25.2813 7.56833 25.134 7.525C24.9953 7.48167 24.8523 7.46 24.705 7.46C24.4883 7.46 24.2977 7.49467 24.133 7.564C23.977 7.63333 23.8383 7.72867 23.717 7.85C23.6043 7.96267 23.509 8.097 23.431 8.253C23.353 8.40033 23.2923 8.56067 23.249 8.734L21.546 8.084C21.65 7.772 21.793 7.47733 21.975 7.2C22.157 6.914 22.3823 6.667 22.651 6.459C22.9283 6.24233 23.2533 6.07333 23.626 5.952C23.9987 5.83067 24.419 5.77 24.887 5.77C25.381 5.77 25.8187 5.83933 26.2 5.978C26.5813 6.11667 26.902 6.30733 27.162 6.55C27.4307 6.79267 27.6343 7.083 27.773 7.421C27.9117 7.75033 27.981 8.11 27.981 8.5C27.981 8.89 27.916 9.24533 27.786 9.566C27.656 9.88667 27.4783 10.19 27.253 10.476C27.0363 10.7533 26.7807 11.0177 26.486 11.269C26.1913 11.5203 25.8837 11.776 25.563 12.036L23.873 13.362H28.163V15ZM34.5799 15.156C33.3926 15.156 32.5129 14.7443 31.9409 13.921C31.3689 13.0977 31.0829 11.945 31.0829 10.463C31.0829 8.981 31.3689 7.82833 31.9409 7.005C32.5129 6.18167 33.3926 5.77 34.5799 5.77C35.7673 5.77 36.6469 6.18167 37.2189 7.005C37.7909 7.82833 38.0769 8.981 38.0769 10.463C38.0769 11.945 37.7909 13.0977 37.2189 13.921C36.6469 14.7443 35.7673 15.156 34.5799 15.156ZM34.5799 13.505C35.0999 13.505 35.4596 13.3143 35.6589 12.933C35.8583 12.5517 35.9579 12.0143 35.9579 11.321V9.605C35.9579 8.91167 35.8583 8.37433 35.6589 7.993C35.4596 7.61167 35.0999 7.421 34.5799 7.421C34.0599 7.421 33.7003 7.61167 33.5009 7.993C33.3016 8.37433 33.2019 8.91167 33.2019 9.605V11.321C33.2019 12.0143 33.3016 12.5517 33.5009 12.933C33.7003 13.3143 34.0599 13.505 34.5799 13.505ZM41.5818 15V13.427H44.0258V7.343H43.9088L42.0628 9.761L40.8148 8.786L42.9858 5.926H45.9758V13.427H47.8998V15H41.5818ZM52.1978 15L55.2398 7.512H52.4058V9.163H50.7548V5.926H57.1768V7.616L54.2518 15H52.1978ZM60.4087 11.971V10.099H64.2697V11.971H60.4087ZM74.0109 15H67.5889V13.219L70.3839 10.827C70.6352 10.6103 70.8475 10.4153 71.0209 10.242C71.1942 10.06 71.3329 9.88667 71.4369 9.722C71.5495 9.54867 71.6275 9.37967 71.6709 9.215C71.7229 9.05033 71.7489 8.87267 71.7489 8.682V8.5C71.7489 8.32667 71.7142 8.175 71.6449 8.045C71.5755 7.915 71.4845 7.80667 71.3719 7.72C71.2592 7.63333 71.1292 7.56833 70.9819 7.525C70.8432 7.48167 70.7002 7.46 70.5529 7.46C70.3362 7.46 70.1455 7.49467 69.9809 7.564C69.8249 7.63333 69.6862 7.72867 69.5649 7.85C69.4522 7.96267 69.3569 8.097 69.2789 8.253C69.2009 8.40033 69.1402 8.56067 69.0969 8.734L67.3939 8.084C67.4979 7.772 67.6409 7.47733 67.8229 7.2C68.0049 6.914 68.2302 6.667 68.4989 6.459C68.7762 6.24233 69.1012 6.07333 69.4739 5.952C69.8465 5.83067 70.2669 5.77 70.7349 5.77C71.2289 5.77 71.6665 5.83933 72.0479 5.978C72.4292 6.11667 72.7499 6.30733 73.0099 6.55C73.2785 6.79267 73.4822 7.083 73.6209 7.421C73.7595 7.75033 73.8289 8.11 73.8289 8.5C73.8289 8.89 73.7639 9.24533 73.6339 9.566C73.5039 9.88667 73.3262 10.19 73.1009 10.476C72.8842 10.7533 72.6285 11.0177 72.3339 11.269C72.0392 11.5203 71.7315 11.776 71.4109 12.036L69.7209 13.362H74.0109V15ZM80.4278 15.156C79.2404 15.156 78.3608 14.7443 77.7888 13.921C77.2168 13.0977 76.9308 11.945 76.9308 10.463C76.9308 8.981 77.2168 7.82833 77.7888 7.005C78.3608 6.18167 79.2404 5.77 80.4278 5.77C81.6151 5.77 82.4948 6.18167 83.0668 7.005C83.6388 7.82833 83.9248 8.981 83.9248 10.463C83.9248 11.945 83.6388 13.0977 83.0668 13.921C82.4948 14.7443 81.6151 15.156 80.4278 15.156ZM80.4278 13.505C80.9478 13.505 81.3074 13.3143 81.5068 12.933C81.7061 12.5517 81.8058 12.0143 81.8058 11.321V9.605C81.8058 8.91167 81.7061 8.37433 81.5068 7.993C81.3074 7.61167 80.9478 7.421 80.4278 7.421C79.9078 7.421 79.5481 7.61167 79.3488 7.993C79.1494 8.37433 79.0498 8.91167 79.0498 9.605V11.321C79.0498 12.0143 79.1494 12.5517 79.3488 12.933C79.5481 13.3143 79.9078 13.505 80.4278 13.505ZM87.4297 15V13.427H89.8737V7.343H89.7567L87.9107 9.761L86.6627 8.786L88.8337 5.926H91.8237V13.427H93.7477V15H87.4297ZM99.7876 15.156C99.2503 15.156 98.7693 15.091 98.3446 14.961C97.9286 14.8223 97.5776 14.636 97.2916 14.402C97.0056 14.168 96.7846 13.8907 96.6286 13.57C96.4813 13.2493 96.4076 12.8983 96.4076 12.517C96.4076 11.9363 96.568 11.464 96.8886 11.1C97.2093 10.7273 97.6426 10.4673 98.1886 10.32V10.216C97.7466 10.0513 97.3826 9.8 97.0966 9.462C96.8193 9.124 96.6806 8.69067 96.6806 8.162C96.6806 7.81533 96.7456 7.49467 96.8756 7.2C97.0143 6.90533 97.2136 6.654 97.4736 6.446C97.7423 6.22933 98.0673 6.06467 98.4486 5.952C98.8386 5.83067 99.285 5.77 99.7876 5.77C100.29 5.77 100.732 5.83067 101.114 5.952C101.504 6.06467 101.829 6.22933 102.089 6.446C102.357 6.654 102.557 6.90533 102.687 7.2C102.825 7.49467 102.895 7.81533 102.895 8.162C102.895 8.69067 102.752 9.124 102.466 9.462C102.188 9.8 101.829 10.0513 101.387 10.216V10.32C101.933 10.4673 102.366 10.7273 102.687 11.1C103.007 11.464 103.168 11.9363 103.168 12.517C103.168 12.8983 103.09 13.2493 102.934 13.57C102.786 13.8907 102.57 14.168 102.284 14.402C101.998 14.636 101.642 14.8223 101.218 14.961C100.802 15.091 100.325 15.156 99.7876 15.156ZM99.7876 13.661C100.221 13.661 100.55 13.5613 100.776 13.362C101.01 13.154 101.127 12.868 101.127 12.504V12.244C101.127 11.88 101.01 11.5983 100.776 11.399C100.55 11.191 100.221 11.087 99.7876 11.087C99.3543 11.087 99.0206 11.191 98.7866 11.399C98.5613 11.5983 98.4486 11.88 98.4486 12.244V12.504C98.4486 12.868 98.5613 13.154 98.7866 13.362C99.0206 13.5613 99.3543 13.661 99.7876 13.661ZM99.7876 9.657C100.204 9.657 100.52 9.56167 100.737 9.371C100.953 9.17167 101.062 8.903 101.062 8.565V8.357C101.062 8.019 100.953 7.75467 100.737 7.564C100.52 7.36467 100.204 7.265 99.7876 7.265C99.3716 7.265 99.0553 7.36467 98.8386 7.564C98.622 7.75467 98.5136 8.019 98.5136 8.357V8.565C98.5136 8.903 98.622 9.17167 98.8386 9.371C99.0553 9.56167 99.3716 9.657 99.7876 9.657ZM24.333 54.132C23.6583 54.132 23.0863 54.0183 22.617 53.791C22.1477 53.5563 21.748 53.2557 21.418 52.889L22.518 51.778C23.0387 52.3647 23.6803 52.658 24.443 52.658C24.8537 52.658 25.158 52.5737 25.356 52.405C25.554 52.2363 25.653 52.0127 25.653 51.734C25.653 51.5213 25.5943 51.3453 25.477 51.206C25.3597 51.0593 25.1213 50.9603 24.762 50.909L24.003 50.81C23.189 50.7073 22.5913 50.4617 22.21 50.073C21.836 49.6843 21.649 49.1673 21.649 48.522C21.649 48.1773 21.715 47.862 21.847 47.576C21.979 47.29 22.166 47.0443 22.408 46.839C22.6573 46.6337 22.958 46.476 23.31 46.366C23.6693 46.2487 24.0763 46.19 24.531 46.19C25.1103 46.19 25.62 46.2817 26.06 46.465C26.5 46.6483 26.8777 46.916 27.193 47.268L26.082 48.39C25.8987 48.1773 25.675 48.005 25.411 47.873C25.1543 47.7337 24.828 47.664 24.432 47.664C24.058 47.664 23.7793 47.73 23.596 47.862C23.4127 47.994 23.321 48.1773 23.321 48.412C23.321 48.676 23.3907 48.8667 23.53 48.984C23.6767 49.1013 23.9113 49.1857 24.234 49.237L24.993 49.358C25.785 49.4827 26.3717 49.7283 26.753 50.095C27.1343 50.4543 27.325 50.9677 27.325 51.635C27.325 52.0017 27.259 52.339 27.127 52.647C26.995 52.955 26.8007 53.219 26.544 53.439C26.2947 53.659 25.983 53.8313 25.609 53.956C25.235 54.0733 24.8097 54.132 24.333 54.132ZM32.5613 54.132C32.1359 54.132 31.7546 54.0623 31.4173 53.923C31.0873 53.7837 30.8049 53.582 30.5703 53.318C30.3429 53.054 30.1669 52.735 30.0423 52.361C29.9176 51.987 29.8553 51.569 29.8553 51.107C29.8553 50.645 29.9176 50.227 30.0423 49.853C30.1669 49.479 30.3429 49.1637 30.5703 48.907C30.8049 48.643 31.0873 48.4413 31.4173 48.302C31.7546 48.1627 32.1359 48.093 32.5613 48.093C32.9866 48.093 33.3643 48.1627 33.6943 48.302C34.0316 48.4413 34.3139 48.643 34.5413 48.907C34.7759 49.1637 34.9556 49.479 35.0803 49.853C35.2049 50.227 35.2673 50.645 35.2673 51.107C35.2673 51.569 35.2049 51.987 35.0803 52.361C34.9556 52.735 34.7759 53.054 34.5413 53.318C34.3139 53.582 34.0316 53.7837 33.6943 53.923C33.3643 54.0623 32.9866 54.132 32.5613 54.132ZM32.5613 52.845C32.8839 52.845 33.1333 52.746 33.3093 52.548C33.4853 52.35 33.5733 52.0677 33.5733 51.701V50.524C33.5733 50.1573 33.4853 49.875 33.3093 49.677C33.1333 49.479 32.8839 49.38 32.5613 49.38C32.2386 49.38 31.9893 49.479 31.8133 49.677C31.6373 49.875 31.5493 50.1573 31.5493 50.524V51.701C31.5493 52.0677 31.6373 52.35 31.8133 52.548C31.9893 52.746 32.2386 52.845 32.5613 52.845ZM38.2438 49.49H37.4298V48.225H38.2438V47.543C38.2438 46.9857 38.3905 46.5677 38.6838 46.289C38.9771 46.003 39.4061 45.86 39.9708 45.86H41.0268V47.125H39.8718V48.225H41.0268V49.49H39.8718V54H38.2438V49.49ZM45.5514 54C44.9867 54 44.5577 53.857 44.2644 53.571C43.9784 53.285 43.8354 52.867 43.8354 52.317V49.49H43.0214V48.225H43.4284C43.6484 48.225 43.7987 48.1737 43.8794 48.071C43.9601 47.961 44.0004 47.807 44.0004 47.609V46.663H45.4634V48.225H46.6074V49.49H45.4634V52.735H46.5194V54H45.5514ZM48.7833 48.225H50.3563L50.9173 50.557L51.3133 52.317H51.3573L51.8193 50.557L52.4793 48.225H53.9643L54.6353 50.557L55.1083 52.317H55.1523L55.5483 50.557L56.1093 48.225H57.6163L56.0213 54H54.3163L53.6123 51.558L53.2053 50.062H53.1723L52.7763 51.558L52.0723 54H50.4003L48.7833 48.225ZM64.295 54C64.0016 54 63.756 53.9083 63.558 53.725C63.3673 53.5417 63.2463 53.296 63.195 52.988H63.129C63.041 53.362 62.8466 53.648 62.546 53.846C62.2453 54.0367 61.875 54.132 61.435 54.132C60.8556 54.132 60.412 53.978 60.104 53.67C59.796 53.362 59.642 52.955 59.642 52.449C59.642 51.8403 59.862 51.3893 60.302 51.096C60.7493 50.7953 61.3543 50.645 62.117 50.645H63.03V50.282C63.03 50.0033 62.9566 49.7833 62.81 49.622C62.6633 49.4533 62.4176 49.369 62.073 49.369C61.7503 49.369 61.4936 49.4387 61.303 49.578C61.1123 49.7173 60.9546 49.875 60.83 50.051L59.862 49.193C60.0966 48.8483 60.39 48.5807 60.742 48.39C61.1013 48.192 61.5853 48.093 62.194 48.093C63.0153 48.093 63.6313 48.2727 64.042 48.632C64.4526 48.9913 64.658 49.5157 64.658 50.205V52.735H65.197V54H64.295ZM62.04 52.999C62.3113 52.999 62.5423 52.9403 62.733 52.823C62.931 52.7057 63.03 52.515 63.03 52.251V51.569H62.238C61.6 51.569 61.281 51.7853 61.281 52.218V52.383C61.281 52.5957 61.347 52.7533 61.479 52.856C61.611 52.9513 61.798 52.999 62.04 52.999ZM67.8847 54V48.225H69.5127V49.479H69.5677C69.597 49.3177 69.6483 49.1637 69.7217 49.017C69.795 48.863 69.8903 48.7273 70.0077 48.61C70.1323 48.4927 70.279 48.401 70.4477 48.335C70.6163 48.2617 70.8143 48.225 71.0417 48.225H71.3277V49.743H70.9207C70.444 49.743 70.0883 49.8053 69.8537 49.93C69.6263 50.0547 69.5127 50.2857 69.5127 50.623V54H67.8847ZM76.2822 54.132C75.8422 54.132 75.4499 54.0623 75.1052 53.923C74.7606 53.7763 74.4672 53.5747 74.2252 53.318C73.9906 53.054 73.8109 52.735 73.6862 52.361C73.5689 51.987 73.5102 51.569 73.5102 51.107C73.5102 50.6523 73.5689 50.2417 73.6862 49.875C73.8036 49.501 73.9759 49.182 74.2032 48.918C74.4379 48.654 74.7239 48.4523 75.0612 48.313C75.3986 48.1663 75.7836 48.093 76.2162 48.093C76.6929 48.093 77.0999 48.1737 77.4372 48.335C77.7819 48.4963 78.0606 48.7127 78.2732 48.984C78.4932 49.2553 78.6509 49.5707 78.7462 49.93C78.8489 50.282 78.9002 50.6523 78.9002 51.041V51.525H75.1932V51.613C75.1932 51.9943 75.2959 52.2987 75.5012 52.526C75.7066 52.746 76.0292 52.856 76.4692 52.856C76.8066 52.856 77.0816 52.79 77.2942 52.658C77.5069 52.5187 77.7049 52.3537 77.8882 52.163L78.7022 53.175C78.4456 53.4757 78.1082 53.7103 77.6902 53.879C77.2796 54.0477 76.8102 54.132 76.2822 54.132ZM76.2492 49.292C75.9192 49.292 75.6589 49.402 75.4682 49.622C75.2849 49.8347 75.1932 50.1207 75.1932 50.48V50.568H77.2172V50.469C77.2172 50.117 77.1366 49.8347 76.9752 49.622C76.8212 49.402 76.5792 49.292 76.2492 49.292ZM85.9276 54V46.322H91.1526V47.807H87.5996V49.38H90.6466V50.854H87.5996V52.515H91.1526V54H85.9276ZM94.1162 54V48.225H95.7442V49.204H95.8102C95.9129 48.9033 96.0926 48.643 96.3492 48.423C96.6059 48.203 96.9616 48.093 97.4162 48.093C98.0102 48.093 98.4576 48.291 98.7582 48.687C99.0662 49.083 99.2202 49.6477 99.2202 50.381V54H97.5922V50.513C97.5922 50.139 97.5336 49.864 97.4162 49.688C97.2989 49.5047 97.0899 49.413 96.7892 49.413C96.6572 49.413 96.5289 49.4313 96.4042 49.468C96.2796 49.4973 96.1659 49.5487 96.0632 49.622C95.9679 49.6953 95.8909 49.787 95.8322 49.897C95.7736 49.9997 95.7442 50.1207 95.7442 50.26V54H94.1162ZM107.61 54.418C107.61 54.726 107.555 54.9973 107.445 55.232C107.342 55.4667 107.17 55.6647 106.928 55.826C106.686 55.9947 106.363 56.1193 105.96 56.2C105.564 56.288 105.073 56.332 104.486 56.332C103.987 56.332 103.562 56.299 103.21 56.233C102.865 56.1743 102.583 56.0863 102.363 55.969C102.15 55.859 101.993 55.7197 101.89 55.551C101.795 55.3897 101.747 55.2027 101.747 54.99C101.747 54.6673 101.842 54.4143 102.033 54.231C102.224 54.0477 102.488 53.934 102.825 53.89V53.769C102.546 53.7177 102.337 53.6003 102.198 53.417C102.059 53.2263 101.989 53.0063 101.989 52.757C101.989 52.603 102.018 52.471 102.077 52.361C102.143 52.2437 102.224 52.1447 102.319 52.064C102.422 51.976 102.539 51.9063 102.671 51.855C102.803 51.8037 102.935 51.7633 103.067 51.734V51.69C102.715 51.5287 102.455 51.3087 102.286 51.03C102.117 50.744 102.033 50.414 102.033 50.04C102.033 49.4533 102.235 48.984 102.638 48.632C103.049 48.2727 103.672 48.093 104.508 48.093C104.889 48.093 105.216 48.1297 105.487 48.203V47.983C105.487 47.675 105.56 47.455 105.707 47.323C105.861 47.1837 106.077 47.114 106.356 47.114H107.269V48.324H105.993V48.39C106.33 48.5513 106.58 48.775 106.741 49.061C106.902 49.3397 106.983 49.666 106.983 50.04C106.983 50.6193 106.778 51.085 106.367 51.437C105.964 51.7817 105.344 51.954 104.508 51.954C104.134 51.954 103.793 51.9137 103.485 51.833C103.316 51.943 103.232 52.097 103.232 52.295C103.232 52.4343 103.283 52.5443 103.386 52.625C103.496 52.6983 103.676 52.735 103.925 52.735H105.597C106.301 52.735 106.811 52.8817 107.126 53.175C107.449 53.4683 107.61 53.8827 107.61 54.418ZM106.081 54.638C106.081 54.4693 106.015 54.341 105.883 54.253C105.751 54.165 105.52 54.121 105.19 54.121H103.21C103.137 54.1943 103.082 54.275 103.045 54.363C103.016 54.4583 103.001 54.55 103.001 54.638C103.001 54.8507 103.093 55.0047 103.276 55.1C103.459 55.2027 103.771 55.254 104.211 55.254H104.871C105.311 55.254 105.623 55.2027 105.806 55.1C105.989 55.0047 106.081 54.8507 106.081 54.638ZM104.508 50.887C104.831 50.887 105.069 50.821 105.223 50.689C105.384 50.5497 105.465 50.3517 105.465 50.095V49.963C105.465 49.7063 105.384 49.512 105.223 49.38C105.069 49.2407 104.831 49.171 104.508 49.171C104.185 49.171 103.943 49.2407 103.782 49.38C103.628 49.512 103.551 49.7063 103.551 49.963V50.095C103.551 50.3517 103.628 50.5497 103.782 50.689C103.943 50.821 104.185 50.887 104.508 50.887ZM110.742 47.609C110.412 47.609 110.17 47.5357 110.016 47.389C109.87 47.235 109.796 47.0407 109.796 46.806V46.564C109.796 46.3293 109.87 46.1387 110.016 45.992C110.17 45.838 110.412 45.761 110.742 45.761C111.072 45.761 111.311 45.838 111.457 45.992C111.611 46.1387 111.688 46.3293 111.688 46.564V46.806C111.688 47.0407 111.611 47.235 111.457 47.389C111.311 47.5357 111.072 47.609 110.742 47.609ZM109.928 48.225H111.556V54H109.928V48.225ZM114.671 54V48.225H116.299V49.204H116.365C116.467 48.9033 116.647 48.643 116.904 48.423C117.16 48.203 117.516 48.093 117.971 48.093C118.565 48.093 119.012 48.291 119.313 48.687C119.621 49.083 119.775 49.6477 119.775 50.381V54H118.147V50.513C118.147 50.139 118.088 49.864 117.971 49.688C117.853 49.5047 117.644 49.413 117.344 49.413C117.212 49.413 117.083 49.4313 116.959 49.468C116.834 49.4973 116.72 49.5487 116.618 49.622C116.522 49.6953 116.445 49.787 116.387 49.897C116.328 49.9997 116.299 50.1207 116.299 50.26V54H114.671ZM125.227 54.132C124.787 54.132 124.395 54.0623 124.05 53.923C123.706 53.7763 123.412 53.5747 123.17 53.318C122.936 53.054 122.756 52.735 122.631 52.361C122.514 51.987 122.455 51.569 122.455 51.107C122.455 50.6523 122.514 50.2417 122.631 49.875C122.749 49.501 122.921 49.182 123.148 48.918C123.383 48.654 123.669 48.4523 124.006 48.313C124.344 48.1663 124.729 48.093 125.161 48.093C125.638 48.093 126.045 48.1737 126.382 48.335C126.727 48.4963 127.006 48.7127 127.218 48.984C127.438 49.2553 127.596 49.5707 127.691 49.93C127.794 50.282 127.845 50.6523 127.845 51.041V51.525H124.138V51.613C124.138 51.9943 124.241 52.2987 124.446 52.526C124.652 52.746 124.974 52.856 125.414 52.856C125.752 52.856 126.027 52.79 126.239 52.658C126.452 52.5187 126.65 52.3537 126.833 52.163L127.647 53.175C127.391 53.4757 127.053 53.7103 126.635 53.879C126.225 54.0477 125.755 54.132 125.227 54.132ZM125.194 49.292C124.864 49.292 124.604 49.402 124.413 49.622C124.23 49.8347 124.138 50.1207 124.138 50.48V50.568H126.162V50.469C126.162 50.117 126.082 49.8347 125.92 49.622C125.766 49.402 125.524 49.292 125.194 49.292ZM132.999 54.132C132.559 54.132 132.167 54.0623 131.822 53.923C131.478 53.7763 131.184 53.5747 130.942 53.318C130.708 53.054 130.528 52.735 130.403 52.361C130.286 51.987 130.227 51.569 130.227 51.107C130.227 50.6523 130.286 50.2417 130.403 49.875C130.521 49.501 130.693 49.182 130.92 48.918C131.155 48.654 131.441 48.4523 131.778 48.313C132.116 48.1663 132.501 48.093 132.933 48.093C133.41 48.093 133.817 48.1737 134.154 48.335C134.499 48.4963 134.778 48.7127 134.99 48.984C135.21 49.2553 135.368 49.5707 135.463 49.93C135.566 50.282 135.617 50.6523 135.617 51.041V51.525H131.91V51.613C131.91 51.9943 132.013 52.2987 132.218 52.526C132.424 52.746 132.746 52.856 133.186 52.856C133.524 52.856 133.799 52.79 134.011 52.658C134.224 52.5187 134.422 52.3537 134.605 52.163L135.419 53.175C135.163 53.4757 134.825 53.7103 134.407 53.879C133.997 54.0477 133.527 54.132 132.999 54.132ZM132.966 49.292C132.636 49.292 132.376 49.402 132.185 49.622C132.002 49.8347 131.91 50.1207 131.91 50.48V50.568H133.934V50.469C133.934 50.117 133.854 49.8347 133.692 49.622C133.538 49.402 133.296 49.292 132.966 49.292ZM138.362 54V48.225H139.99V49.479H140.045C140.074 49.3177 140.126 49.1637 140.199 49.017C140.272 48.863 140.368 48.7273 140.485 48.61C140.61 48.4927 140.756 48.401 140.925 48.335C141.094 48.2617 141.292 48.225 141.519 48.225H141.805V49.743H141.398C140.921 49.743 140.566 49.8053 140.331 49.93C140.104 50.0547 139.99 50.2857 139.99 50.623V54H138.362ZM21.847 72V64.322H25.477C25.8363 64.322 26.159 64.3843 26.445 64.509C26.731 64.6263 26.973 64.7913 27.171 65.004C27.3763 65.2167 27.534 65.477 27.644 65.785C27.754 66.0857 27.809 66.4157 27.809 66.775C27.809 67.1417 27.754 67.4753 27.644 67.776C27.534 68.0767 27.3763 68.3333 27.171 68.546C26.973 68.7587 26.731 68.9273 26.445 69.052C26.159 69.1693 25.8363 69.228 25.477 69.228H23.519V72H21.847ZM23.519 67.776H25.279C25.5283 67.776 25.7227 67.7137 25.862 67.589C26.0087 67.457 26.082 67.2663 26.082 67.017V66.533C26.082 66.2837 26.0087 66.0967 25.862 65.972C25.7227 65.84 25.5283 65.774 25.279 65.774H23.519V67.776ZM32.7009 72.132C32.2756 72.132 31.8942 72.0623 31.5569 71.923C31.2269 71.7837 30.9446 71.582 30.7099 71.318C30.4826 71.054 30.3066 70.735 30.1819 70.361C30.0572 69.987 29.9949 69.569 29.9949 69.107C29.9949 68.645 30.0572 68.227 30.1819 67.853C30.3066 67.479 30.4826 67.1637 30.7099 66.907C30.9446 66.643 31.2269 66.4413 31.5569 66.302C31.8942 66.1627 32.2756 66.093 32.7009 66.093C33.1262 66.093 33.5039 66.1627 33.8339 66.302C34.1712 66.4413 34.4536 66.643 34.6809 66.907C34.9156 67.1637 35.0952 67.479 35.2199 67.853C35.3446 68.227 35.4069 68.645 35.4069 69.107C35.4069 69.569 35.3446 69.987 35.2199 70.361C35.0952 70.735 34.9156 71.054 34.6809 71.318C34.4536 71.582 34.1712 71.7837 33.8339 71.923C33.5039 72.0623 33.1262 72.132 32.7009 72.132ZM32.7009 70.845C33.0236 70.845 33.2729 70.746 33.4489 70.548C33.6249 70.35 33.7129 70.0677 33.7129 69.701V68.524C33.7129 68.1573 33.6249 67.875 33.4489 67.677C33.2729 67.479 33.0236 67.38 32.7009 67.38C32.3782 67.38 32.1289 67.479 31.9529 67.677C31.7769 67.875 31.6889 68.1573 31.6889 68.524V69.701C31.6889 70.0677 31.7769 70.35 31.9529 70.548C32.1289 70.746 32.3782 70.845 32.7009 70.845ZM39.7789 72C39.2216 72 38.8109 71.8643 38.5469 71.593C38.2902 71.3217 38.1619 70.9293 38.1619 70.416V63.86H39.7899V70.735H40.5159V72H39.7789ZM46.497 71.032H46.442C46.3906 71.1787 46.321 71.318 46.233 71.45C46.1523 71.582 46.046 71.6993 45.914 71.802C45.782 71.9047 45.6243 71.9853 45.441 72.044C45.265 72.1027 45.0596 72.132 44.825 72.132C44.231 72.132 43.78 71.9377 43.472 71.549C43.1713 71.153 43.021 70.5883 43.021 69.855V66.225H44.649V69.712C44.649 70.064 44.7113 70.3353 44.836 70.526C44.9606 70.7167 45.1733 70.812 45.474 70.812C45.5986 70.812 45.7233 70.7937 45.848 70.757C45.9726 70.7203 46.0826 70.669 46.178 70.603C46.2733 70.5297 46.3503 70.4417 46.409 70.339C46.4676 70.2363 46.497 70.1153 46.497 69.976V66.225H48.125V72H46.497V71.032ZM53.1927 72.132C52.6354 72.132 52.166 72.044 51.7847 71.868C51.4034 71.6847 51.0624 71.428 50.7617 71.098L51.7187 70.13C51.924 70.3573 52.1514 70.537 52.4007 70.669C52.65 70.801 52.9324 70.867 53.2477 70.867C53.5704 70.867 53.794 70.8193 53.9187 70.724C54.0434 70.6213 54.1057 70.4857 54.1057 70.317C54.1057 70.0457 53.9114 69.8843 53.5227 69.833L52.8957 69.756C51.5977 69.5947 50.9487 69.0007 50.9487 67.974C50.9487 67.6953 51 67.4423 51.1027 67.215C51.2127 66.9803 51.363 66.7823 51.5537 66.621C51.7517 66.4523 51.9864 66.324 52.2577 66.236C52.5364 66.1407 52.848 66.093 53.1927 66.093C53.4934 66.093 53.7574 66.115 53.9847 66.159C54.2194 66.1957 54.4247 66.2543 54.6007 66.335C54.784 66.4083 54.949 66.5037 55.0957 66.621C55.2497 66.731 55.4 66.8557 55.5467 66.995L54.6117 67.952C54.4284 67.7687 54.2194 67.6257 53.9847 67.523C53.7574 67.413 53.5227 67.358 53.2807 67.358C53.002 67.358 52.804 67.402 52.6867 67.49C52.5694 67.578 52.5107 67.6953 52.5107 67.842C52.5107 67.996 52.551 68.117 52.6317 68.205C52.7197 68.2857 52.881 68.3443 53.1157 68.381L53.7647 68.469C55.0334 68.6377 55.6677 69.217 55.6677 70.207C55.6677 70.4857 55.609 70.7423 55.4917 70.977C55.3744 71.2117 55.2057 71.417 54.9857 71.593C54.773 71.7617 54.5127 71.8937 54.2047 71.989C53.904 72.0843 53.5667 72.132 53.1927 72.132ZM65.1413 72.132C64.4666 72.132 63.8946 72.0183 63.4253 71.791C62.9559 71.5563 62.5563 71.2557 62.2263 70.889L63.3263 69.778C63.8469 70.3647 64.4886 70.658 65.2513 70.658C65.6619 70.658 65.9663 70.5737 66.1643 70.405C66.3623 70.2363 66.4613 70.0127 66.4613 69.734C66.4613 69.5213 66.4026 69.3453 66.2853 69.206C66.1679 69.0593 65.9296 68.9603 65.5703 68.909L64.8113 68.81C63.9973 68.7073 63.3996 68.4617 63.0183 68.073C62.6443 67.6843 62.4573 67.1673 62.4573 66.522C62.4573 66.1773 62.5233 65.862 62.6553 65.576C62.7873 65.29 62.9743 65.0443 63.2163 64.839C63.4656 64.6337 63.7663 64.476 64.1183 64.366C64.4776 64.2487 64.8846 64.19 65.3393 64.19C65.9186 64.19 66.4283 64.2817 66.8683 64.465C67.3083 64.6483 67.6859 64.916 68.0013 65.268L66.8903 66.39C66.7069 66.1773 66.4833 66.005 66.2193 65.873C65.9626 65.7337 65.6363 65.664 65.2403 65.664C64.8663 65.664 64.5876 65.73 64.4043 65.862C64.2209 65.994 64.1293 66.1773 64.1293 66.412C64.1293 66.676 64.1989 66.8667 64.3383 66.984C64.4849 67.1013 64.7196 67.1857 65.0423 67.237L65.8013 67.358C66.5933 67.4827 67.1799 67.7283 67.5613 68.095C67.9426 68.4543 68.1333 68.9677 68.1333 69.635C68.1333 70.0017 68.0673 70.339 67.9353 70.647C67.8033 70.955 67.6089 71.219 67.3523 71.439C67.1029 71.659 66.7913 71.8313 66.4173 71.956C66.0433 72.0733 65.6179 72.132 65.1413 72.132ZM73.3695 72.132C72.9442 72.132 72.5629 72.0623 72.2255 71.923C71.8955 71.7837 71.6132 71.582 71.3785 71.318C71.1512 71.054 70.9752 70.735 70.8505 70.361C70.7259 69.987 70.6635 69.569 70.6635 69.107C70.6635 68.645 70.7259 68.227 70.8505 67.853C70.9752 67.479 71.1512 67.1637 71.3785 66.907C71.6132 66.643 71.8955 66.4413 72.2255 66.302C72.5629 66.1627 72.9442 66.093 73.3695 66.093C73.7949 66.093 74.1725 66.1627 74.5025 66.302C74.8399 66.4413 75.1222 66.643 75.3495 66.907C75.5842 67.1637 75.7639 67.479 75.8885 67.853C76.0132 68.227 76.0755 68.645 76.0755 69.107C76.0755 69.569 76.0132 69.987 75.8885 70.361C75.7639 70.735 75.5842 71.054 75.3495 71.318C75.1222 71.582 74.8399 71.7837 74.5025 71.923C74.1725 72.0623 73.7949 72.132 73.3695 72.132ZM73.3695 70.845C73.6922 70.845 73.9415 70.746 74.1175 70.548C74.2935 70.35 74.3815 70.0677 74.3815 69.701V68.524C74.3815 68.1573 74.2935 67.875 74.1175 67.677C73.9415 67.479 73.6922 67.38 73.3695 67.38C73.0469 67.38 72.7975 67.479 72.6215 67.677C72.4455 67.875 72.3575 68.1573 72.3575 68.524V69.701C72.3575 70.0677 72.4455 70.35 72.6215 70.548C72.7975 70.746 73.0469 70.845 73.3695 70.845ZM79.0521 67.49H78.2381V66.225H79.0521V65.543C79.0521 64.9857 79.1987 64.5677 79.4921 64.289C79.7854 64.003 80.2144 63.86 80.7791 63.86H81.8351V65.125H80.6801V66.225H81.8351V67.49H80.6801V72H79.0521V67.49ZM86.3597 72C85.795 72 85.366 71.857 85.0727 71.571C84.7867 71.285 84.6437 70.867 84.6437 70.317V67.49H83.8297V66.225H84.2367C84.4567 66.225 84.607 66.1737 84.6877 66.071C84.7683 65.961 84.8087 65.807 84.8087 65.609V64.663H86.2717V66.225H87.4157V67.49H86.2717V70.735H87.3277V72H86.3597ZM89.5916 66.225H91.1646L91.7256 68.557L92.1216 70.317H92.1656L92.6276 68.557L93.2876 66.225H94.7726L95.4436 68.557L95.9166 70.317H95.9606L96.3566 68.557L96.9176 66.225H98.4246L96.8296 72H95.1246L94.4206 69.558L94.0136 68.062H93.9806L93.5846 69.558L92.8806 72H91.2086L89.5916 66.225ZM105.103 72C104.81 72 104.564 71.9083 104.366 71.725C104.176 71.5417 104.055 71.296 104.003 70.988H103.937C103.849 71.362 103.655 71.648 103.354 71.846C103.054 72.0367 102.683 72.132 102.243 72.132C101.664 72.132 101.22 71.978 100.912 71.67C100.604 71.362 100.45 70.955 100.45 70.449C100.45 69.8403 100.67 69.3893 101.11 69.096C101.558 68.7953 102.163 68.645 102.925 68.645H103.838V68.282C103.838 68.0033 103.765 67.7833 103.618 67.622C103.472 67.4533 103.226 67.369 102.881 67.369C102.559 67.369 102.302 67.4387 102.111 67.578C101.921 67.7173 101.763 67.875 101.638 68.051L100.67 67.193C100.905 66.8483 101.198 66.5807 101.55 66.39C101.91 66.192 102.394 66.093 103.002 66.093C103.824 66.093 104.44 66.2727 104.85 66.632C105.261 66.9913 105.466 67.5157 105.466 68.205V70.735H106.005V72H105.103ZM102.848 70.999C103.12 70.999 103.351 70.9403 103.541 70.823C103.739 70.7057 103.838 70.515 103.838 70.251V69.569H103.046C102.408 69.569 102.089 69.7853 102.089 70.218V70.383C102.089 70.5957 102.155 70.7533 102.287 70.856C102.419 70.9513 102.606 70.999 102.848 70.999ZM108.693 72V66.225H110.321V67.479H110.376C110.405 67.3177 110.457 67.1637 110.53 67.017C110.603 66.863 110.699 66.7273 110.816 66.61C110.941 66.4927 111.087 66.401 111.256 66.335C111.425 66.2617 111.623 66.225 111.85 66.225H112.136V67.743H111.729C111.252 67.743 110.897 67.8053 110.662 67.93C110.435 68.0547 110.321 68.2857 110.321 68.623V72H108.693ZM117.091 72.132C116.651 72.132 116.258 72.0623 115.914 71.923C115.569 71.7763 115.276 71.5747 115.034 71.318C114.799 71.054 114.619 70.735 114.495 70.361C114.377 69.987 114.319 69.569 114.319 69.107C114.319 68.6523 114.377 68.2417 114.495 67.875C114.612 67.501 114.784 67.182 115.012 66.918C115.246 66.654 115.532 66.4523 115.87 66.313C116.207 66.1663 116.592 66.093 117.025 66.093C117.501 66.093 117.908 66.1737 118.246 66.335C118.59 66.4963 118.869 66.7127 119.082 66.984C119.302 67.2553 119.459 67.5707 119.555 67.93C119.657 68.282 119.709 68.6523 119.709 69.041V69.525H116.002V69.613C116.002 69.9943 116.104 70.2987 116.31 70.526C116.515 70.746 116.838 70.856 117.278 70.856C117.615 70.856 117.89 70.79 118.103 70.658C118.315 70.5187 118.513 70.3537 118.697 70.163L119.511 71.175C119.254 71.4757 118.917 71.7103 118.499 71.879C118.088 72.0477 117.619 72.132 117.091 72.132ZM117.058 67.292C116.728 67.292 116.467 67.402 116.277 67.622C116.093 67.8347 116.002 68.1207 116.002 68.48V68.568H118.026V68.469C118.026 68.117 117.945 67.8347 117.784 67.622C117.63 67.402 117.388 67.292 117.058 67.292ZM124.411 72.132C123.854 72.132 123.385 72.044 123.003 71.868C122.622 71.6847 122.281 71.428 121.98 71.098L122.937 70.13C123.143 70.3573 123.37 70.537 123.619 70.669C123.869 70.801 124.151 70.867 124.466 70.867C124.789 70.867 125.013 70.8193 125.137 70.724C125.262 70.6213 125.324 70.4857 125.324 70.317C125.324 70.0457 125.13 69.8843 124.741 69.833L124.114 69.756C122.816 69.5947 122.167 69.0007 122.167 67.974C122.167 67.6953 122.219 67.4423 122.321 67.215C122.431 66.9803 122.582 66.7823 122.772 66.621C122.97 66.4523 123.205 66.324 123.476 66.236C123.755 66.1407 124.067 66.093 124.411 66.093C124.712 66.093 124.976 66.115 125.203 66.159C125.438 66.1957 125.643 66.2543 125.819 66.335C126.003 66.4083 126.168 66.5037 126.314 66.621C126.468 66.731 126.619 66.8557 126.765 66.995L125.83 67.952C125.647 67.7687 125.438 67.6257 125.203 67.523C124.976 67.413 124.741 67.358 124.499 67.358C124.221 67.358 124.023 67.402 123.905 67.49C123.788 67.578 123.729 67.6953 123.729 67.842C123.729 67.996 123.77 68.117 123.85 68.205C123.938 68.2857 124.1 68.3443 124.334 68.381L124.983 68.469C126.252 68.6377 126.886 69.217 126.886 70.207C126.886 70.4857 126.828 70.7423 126.71 70.977C126.593 71.2117 126.424 71.417 126.204 71.593C125.992 71.7617 125.731 71.8937 125.423 71.989C125.123 72.0843 124.785 72.132 124.411 72.132Z" fill="#292929"/>
<path d="M28.163 127H21.741V125.219L24.536 122.827C24.7873 122.61 24.9997 122.415 25.173 122.242C25.3463 122.06 25.485 121.887 25.589 121.722C25.7017 121.549 25.7797 121.38 25.823 121.215C25.875 121.05 25.901 120.873 25.901 120.682V120.5C25.901 120.327 25.8663 120.175 25.797 120.045C25.7277 119.915 25.6367 119.807 25.524 119.72C25.4113 119.633 25.2813 119.568 25.134 119.525C24.9953 119.482 24.8523 119.46 24.705 119.46C24.4883 119.46 24.2977 119.495 24.133 119.564C23.977 119.633 23.8383 119.729 23.717 119.85C23.6043 119.963 23.509 120.097 23.431 120.253C23.353 120.4 23.2923 120.561 23.249 120.734L21.546 120.084C21.65 119.772 21.793 119.477 21.975 119.2C22.157 118.914 22.3823 118.667 22.651 118.459C22.9283 118.242 23.2533 118.073 23.626 117.952C23.9987 117.831 24.419 117.77 24.887 117.77C25.381 117.77 25.8187 117.839 26.2 117.978C26.5813 118.117 26.902 118.307 27.162 118.55C27.4307 118.793 27.6343 119.083 27.773 119.421C27.9117 119.75 27.981 120.11 27.981 120.5C27.981 120.89 27.916 121.245 27.786 121.566C27.656 121.887 27.4783 122.19 27.253 122.476C27.0363 122.753 26.7807 123.018 26.486 123.269C26.1913 123.52 25.8837 123.776 25.563 124.036L23.873 125.362H28.163V127ZM34.5799 127.156C33.3926 127.156 32.5129 126.744 31.9409 125.921C31.3689 125.098 31.0829 123.945 31.0829 122.463C31.0829 120.981 31.3689 119.828 31.9409 119.005C32.5129 118.182 33.3926 117.77 34.5799 117.77C35.7673 117.77 36.6469 118.182 37.2189 119.005C37.7909 119.828 38.0769 120.981 38.0769 122.463C38.0769 123.945 37.7909 125.098 37.2189 125.921C36.6469 126.744 35.7673 127.156 34.5799 127.156ZM34.5799 125.505C35.0999 125.505 35.4596 125.314 35.6589 124.933C35.8583 124.552 35.9579 124.014 35.9579 123.321V121.605C35.9579 120.912 35.8583 120.374 35.6589 119.993C35.4596 119.612 35.0999 119.421 34.5799 119.421C34.0599 119.421 33.7003 119.612 33.5009 119.993C33.3016 120.374 33.2019 120.912 33.2019 121.605V123.321C33.2019 124.014 33.3016 124.552 33.5009 124.933C33.7003 125.314 34.0599 125.505 34.5799 125.505ZM41.5818 127V125.427H44.0258V119.343H43.9088L42.0628 121.761L40.8148 120.786L42.9858 117.926H45.9758V125.427H47.8998V127H41.5818ZM53.9398 127.156C53.4024 127.156 52.9214 127.091 52.4968 126.961C52.0808 126.822 51.7298 126.636 51.4438 126.402C51.1578 126.168 50.9368 125.891 50.7808 125.57C50.6334 125.249 50.5598 124.898 50.5598 124.517C50.5598 123.936 50.7201 123.464 51.0408 123.1C51.3614 122.727 51.7948 122.467 52.3408 122.32V122.216C51.8988 122.051 51.5348 121.8 51.2488 121.462C50.9714 121.124 50.8328 120.691 50.8328 120.162C50.8328 119.815 50.8978 119.495 51.0278 119.2C51.1664 118.905 51.3658 118.654 51.6258 118.446C51.8944 118.229 52.2194 118.065 52.6008 117.952C52.9908 117.831 53.4371 117.77 53.9398 117.77C54.4424 117.77 54.8844 117.831 55.2658 117.952C55.6558 118.065 55.9808 118.229 56.2408 118.446C56.5094 118.654 56.7088 118.905 56.8388 119.2C56.9774 119.495 57.0468 119.815 57.0468 120.162C57.0468 120.691 56.9038 121.124 56.6178 121.462C56.3404 121.8 55.9808 122.051 55.5388 122.216V122.32C56.0848 122.467 56.5181 122.727 56.8388 123.1C57.1594 123.464 57.3198 123.936 57.3198 124.517C57.3198 124.898 57.2418 125.249 57.0858 125.57C56.9384 125.891 56.7218 126.168 56.4358 126.402C56.1498 126.636 55.7944 126.822 55.3698 126.961C54.9538 127.091 54.4771 127.156 53.9398 127.156ZM53.9398 125.661C54.3731 125.661 54.7024 125.561 54.9278 125.362C55.1618 125.154 55.2788 124.868 55.2788 124.504V124.244C55.2788 123.88 55.1618 123.598 54.9278 123.399C54.7024 123.191 54.3731 123.087 53.9398 123.087C53.5064 123.087 53.1728 123.191 52.9388 123.399C52.7134 123.598 52.6008 123.88 52.6008 124.244V124.504C52.6008 124.868 52.7134 125.154 52.9388 125.362C53.1728 125.561 53.5064 125.661 53.9398 125.661ZM53.9398 121.657C54.3558 121.657 54.6721 121.562 54.8888 121.371C55.1054 121.172 55.2138 120.903 55.2138 120.565V120.357C55.2138 120.019 55.1054 119.755 54.8888 119.564C54.6721 119.365 54.3558 119.265 53.9398 119.265C53.5238 119.265 53.2074 119.365 52.9908 119.564C52.7741 119.755 52.6658 120.019 52.6658 120.357V120.565C52.6658 120.903 52.7741 121.172 52.9908 121.371C53.2074 121.562 53.5238 121.657 53.9398 121.657ZM60.4087 123.971V122.099H64.2697V123.971H60.4087ZM74.0109 127H67.5889V125.219L70.3839 122.827C70.6352 122.61 70.8475 122.415 71.0209 122.242C71.1942 122.06 71.3329 121.887 71.4369 121.722C71.5495 121.549 71.6275 121.38 71.6709 121.215C71.7229 121.05 71.7489 120.873 71.7489 120.682V120.5C71.7489 120.327 71.7142 120.175 71.6449 120.045C71.5755 119.915 71.4845 119.807 71.3719 119.72C71.2592 119.633 71.1292 119.568 70.9819 119.525C70.8432 119.482 70.7002 119.46 70.5529 119.46C70.3362 119.46 70.1455 119.495 69.9809 119.564C69.8249 119.633 69.6862 119.729 69.5649 119.85C69.4522 119.963 69.3569 120.097 69.2789 120.253C69.2009 120.4 69.1402 120.561 69.0969 120.734L67.3939 120.084C67.4979 119.772 67.6409 119.477 67.8229 119.2C68.0049 118.914 68.2302 118.667 68.4989 118.459C68.7762 118.242 69.1012 118.073 69.4739 117.952C69.8465 117.831 70.2669 117.77 70.7349 117.77C71.2289 117.77 71.6665 117.839 72.0479 117.978C72.4292 118.117 72.7499 118.307 73.0099 118.55C73.2785 118.793 73.4822 119.083 73.6209 119.421C73.7595 119.75 73.8289 120.11 73.8289 120.5C73.8289 120.89 73.7639 121.245 73.6339 121.566C73.5039 121.887 73.3262 122.19 73.1009 122.476C72.8842 122.753 72.6285 123.018 72.3339 123.269C72.0392 123.52 71.7315 123.776 71.4109 124.036L69.7209 125.362H74.0109V127ZM80.4278 127.156C79.2404 127.156 78.3608 126.744 77.7888 125.921C77.2168 125.098 76.9308 123.945 76.9308 122.463C76.9308 120.981 77.2168 119.828 77.7888 119.005C78.3608 118.182 79.2404 117.77 80.4278 117.77C81.6151 117.77 82.4948 118.182 83.0668 119.005C83.6388 119.828 83.9248 120.981 83.9248 122.463C83.9248 123.945 83.6388 125.098 83.0668 125.921C82.4948 126.744 81.6151 127.156 80.4278 127.156ZM80.4278 125.505C80.9478 125.505 81.3074 125.314 81.5068 124.933C81.7061 124.552 81.8058 124.014 81.8058 123.321V121.605C81.8058 120.912 81.7061 120.374 81.5068 119.993C81.3074 119.612 80.9478 119.421 80.4278 119.421C79.9078 119.421 79.5481 119.612 79.3488 119.993C79.1494 120.374 79.0498 120.912 79.0498 121.605V123.321C79.0498 124.014 79.1494 124.552 79.3488 124.933C79.5481 125.314 79.9078 125.505 80.4278 125.505ZM93.3707 127H86.9487V125.219L89.7437 122.827C89.995 122.61 90.2074 122.415 90.3807 122.242C90.554 122.06 90.6927 121.887 90.7967 121.722C90.9094 121.549 90.9874 121.38 91.0307 121.215C91.0827 121.05 91.1087 120.873 91.1087 120.682V120.5C91.1087 120.327 91.074 120.175 91.0047 120.045C90.9354 119.915 90.8444 119.807 90.7317 119.72C90.619 119.633 90.489 119.568 90.3417 119.525C90.203 119.482 90.06 119.46 89.9127 119.46C89.696 119.46 89.5054 119.495 89.3407 119.564C89.1847 119.633 89.046 119.729 88.9247 119.85C88.812 119.963 88.7167 120.097 88.6387 120.253C88.5607 120.4 88.5 120.561 88.4567 120.734L86.7537 120.084C86.8577 119.772 87.0007 119.477 87.1827 119.2C87.3647 118.914 87.59 118.667 87.8587 118.459C88.136 118.242 88.461 118.073 88.8337 117.952C89.2064 117.831 89.6267 117.77 90.0947 117.77C90.5887 117.77 91.0264 117.839 91.4077 117.978C91.789 118.117 92.1097 118.307 92.3697 118.55C92.6384 118.793 92.842 119.083 92.9807 119.421C93.1194 119.75 93.1887 120.11 93.1887 120.5C93.1887 120.89 93.1237 121.245 92.9937 121.566C92.8637 121.887 92.686 122.19 92.4607 122.476C92.244 122.753 91.9884 123.018 91.6937 123.269C91.399 123.52 91.0914 123.776 90.7707 124.036L89.0807 125.362H93.3707V127ZM99.7876 127.156C98.6003 127.156 97.7206 126.744 97.1486 125.921C96.5766 125.098 96.2906 123.945 96.2906 122.463C96.2906 120.981 96.5766 119.828 97.1486 119.005C97.7206 118.182 98.6003 117.77 99.7876 117.77C100.975 117.77 101.855 118.182 102.427 119.005C102.999 119.828 103.285 120.981 103.285 122.463C103.285 123.945 102.999 125.098 102.427 125.921C101.855 126.744 100.975 127.156 99.7876 127.156ZM99.7876 125.505C100.308 125.505 100.667 125.314 100.867 124.933C101.066 124.552 101.166 124.014 101.166 123.321V121.605C101.166 120.912 101.066 120.374 100.867 119.993C100.667 119.612 100.308 119.421 99.7876 119.421C99.2676 119.421 98.908 119.612 98.7086 119.993C98.5093 120.374 98.4096 120.912 98.4096 121.605V123.321C98.4096 124.014 98.5093 124.552 98.7086 124.933C98.908 125.314 99.2676 125.505 99.7876 125.505ZM24.333 166.132C23.6583 166.132 23.0863 166.018 22.617 165.791C22.1477 165.556 21.748 165.256 21.418 164.889L22.518 163.778C23.0387 164.365 23.6803 164.658 24.443 164.658C24.8537 164.658 25.158 164.574 25.356 164.405C25.554 164.236 25.653 164.013 25.653 163.734C25.653 163.521 25.5943 163.345 25.477 163.206C25.3597 163.059 25.1213 162.96 24.762 162.909L24.003 162.81C23.189 162.707 22.5913 162.462 22.21 162.073C21.836 161.684 21.649 161.167 21.649 160.522C21.649 160.177 21.715 159.862 21.847 159.576C21.979 159.29 22.166 159.044 22.408 158.839C22.6573 158.634 22.958 158.476 23.31 158.366C23.6693 158.249 24.0763 158.19 24.531 158.19C25.1103 158.19 25.62 158.282 26.06 158.465C26.5 158.648 26.8777 158.916 27.193 159.268L26.082 160.39C25.8987 160.177 25.675 160.005 25.411 159.873C25.1543 159.734 24.828 159.664 24.432 159.664C24.058 159.664 23.7793 159.73 23.596 159.862C23.4127 159.994 23.321 160.177 23.321 160.412C23.321 160.676 23.3907 160.867 23.53 160.984C23.6767 161.101 23.9113 161.186 24.234 161.237L24.993 161.358C25.785 161.483 26.3717 161.728 26.753 162.095C27.1343 162.454 27.325 162.968 27.325 163.635C27.325 164.002 27.259 164.339 27.127 164.647C26.995 164.955 26.8007 165.219 26.544 165.439C26.2947 165.659 25.983 165.831 25.609 165.956C25.235 166.073 24.8097 166.132 24.333 166.132ZM32.5613 166.132C32.1359 166.132 31.7546 166.062 31.4173 165.923C31.0873 165.784 30.8049 165.582 30.5703 165.318C30.3429 165.054 30.1669 164.735 30.0423 164.361C29.9176 163.987 29.8553 163.569 29.8553 163.107C29.8553 162.645 29.9176 162.227 30.0423 161.853C30.1669 161.479 30.3429 161.164 30.5703 160.907C30.8049 160.643 31.0873 160.441 31.4173 160.302C31.7546 160.163 32.1359 160.093 32.5613 160.093C32.9866 160.093 33.3643 160.163 33.6943 160.302C34.0316 160.441 34.3139 160.643 34.5413 160.907C34.7759 161.164 34.9556 161.479 35.0803 161.853C35.2049 162.227 35.2673 162.645 35.2673 163.107C35.2673 163.569 35.2049 163.987 35.0803 164.361C34.9556 164.735 34.7759 165.054 34.5413 165.318C34.3139 165.582 34.0316 165.784 33.6943 165.923C33.3643 166.062 32.9866 166.132 32.5613 166.132ZM32.5613 164.845C32.8839 164.845 33.1333 164.746 33.3093 164.548C33.4853 164.35 33.5733 164.068 33.5733 163.701V162.524C33.5733 162.157 33.4853 161.875 33.3093 161.677C33.1333 161.479 32.8839 161.38 32.5613 161.38C32.2386 161.38 31.9893 161.479 31.8133 161.677C31.6373 161.875 31.5493 162.157 31.5493 162.524V163.701C31.5493 164.068 31.6373 164.35 31.8133 164.548C31.9893 164.746 32.2386 164.845 32.5613 164.845ZM38.2438 161.49H37.4298V160.225H38.2438V159.543C38.2438 158.986 38.3905 158.568 38.6838 158.289C38.9771 158.003 39.4061 157.86 39.9708 157.86H41.0268V159.125H39.8718V160.225H41.0268V161.49H39.8718V166H38.2438V161.49ZM45.5514 166C44.9867 166 44.5577 165.857 44.2644 165.571C43.9784 165.285 43.8354 164.867 43.8354 164.317V161.49H43.0214V160.225H43.4284C43.6484 160.225 43.7987 160.174 43.8794 160.071C43.9601 159.961 44.0004 159.807 44.0004 159.609V158.663H45.4634V160.225H46.6074V161.49H45.4634V164.735H46.5194V166H45.5514ZM48.7833 160.225H50.3563L50.9173 162.557L51.3133 164.317H51.3573L51.8193 162.557L52.4793 160.225H53.9643L54.6353 162.557L55.1083 164.317H55.1523L55.5483 162.557L56.1093 160.225H57.6163L56.0213 166H54.3163L53.6123 163.558L53.2053 162.062H53.1723L52.7763 163.558L52.0723 166H50.4003L48.7833 160.225ZM64.295 166C64.0016 166 63.756 165.908 63.558 165.725C63.3673 165.542 63.2463 165.296 63.195 164.988H63.129C63.041 165.362 62.8466 165.648 62.546 165.846C62.2453 166.037 61.875 166.132 61.435 166.132C60.8556 166.132 60.412 165.978 60.104 165.67C59.796 165.362 59.642 164.955 59.642 164.449C59.642 163.84 59.862 163.389 60.302 163.096C60.7493 162.795 61.3543 162.645 62.117 162.645H63.03V162.282C63.03 162.003 62.9566 161.783 62.81 161.622C62.6633 161.453 62.4176 161.369 62.073 161.369C61.7503 161.369 61.4936 161.439 61.303 161.578C61.1123 161.717 60.9546 161.875 60.83 162.051L59.862 161.193C60.0966 160.848 60.39 160.581 60.742 160.39C61.1013 160.192 61.5853 160.093 62.194 160.093C63.0153 160.093 63.6313 160.273 64.042 160.632C64.4526 160.991 64.658 161.516 64.658 162.205V164.735H65.197V166H64.295ZM62.04 164.999C62.3113 164.999 62.5423 164.94 62.733 164.823C62.931 164.706 63.03 164.515 63.03 164.251V163.569H62.238C61.6 163.569 61.281 163.785 61.281 164.218V164.383C61.281 164.596 61.347 164.753 61.479 164.856C61.611 164.951 61.798 164.999 62.04 164.999ZM67.8847 166V160.225H69.5127V161.479H69.5677C69.597 161.318 69.6483 161.164 69.7217 161.017C69.795 160.863 69.8903 160.727 70.0077 160.61C70.1323 160.493 70.279 160.401 70.4477 160.335C70.6163 160.262 70.8143 160.225 71.0417 160.225H71.3277V161.743H70.9207C70.444 161.743 70.0883 161.805 69.8537 161.93C69.6263 162.055 69.5127 162.286 69.5127 162.623V166H67.8847ZM76.2822 166.132C75.8422 166.132 75.4499 166.062 75.1052 165.923C74.7606 165.776 74.4672 165.575 74.2252 165.318C73.9906 165.054 73.8109 164.735 73.6862 164.361C73.5689 163.987 73.5102 163.569 73.5102 163.107C73.5102 162.652 73.5689 162.242 73.6862 161.875C73.8036 161.501 73.9759 161.182 74.2032 160.918C74.4379 160.654 74.7239 160.452 75.0612 160.313C75.3986 160.166 75.7836 160.093 76.2162 160.093C76.6929 160.093 77.0999 160.174 77.4372 160.335C77.7819 160.496 78.0606 160.713 78.2732 160.984C78.4932 161.255 78.6509 161.571 78.7462 161.93C78.8489 162.282 78.9002 162.652 78.9002 163.041V163.525H75.1932V163.613C75.1932 163.994 75.2959 164.299 75.5012 164.526C75.7066 164.746 76.0292 164.856 76.4692 164.856C76.8066 164.856 77.0816 164.79 77.2942 164.658C77.5069 164.519 77.7049 164.354 77.8882 164.163L78.7022 165.175C78.4456 165.476 78.1082 165.71 77.6902 165.879C77.2796 166.048 76.8102 166.132 76.2822 166.132ZM76.2492 161.292C75.9192 161.292 75.6589 161.402 75.4682 161.622C75.2849 161.835 75.1932 162.121 75.1932 162.48V162.568H77.2172V162.469C77.2172 162.117 77.1366 161.835 76.9752 161.622C76.8212 161.402 76.5792 161.292 76.2492 161.292ZM85.9276 166V158.322H91.1526V159.807H87.5996V161.38H90.6466V162.854H87.5996V164.515H91.1526V166H85.9276ZM94.1162 166V160.225H95.7442V161.204H95.8102C95.9129 160.903 96.0926 160.643 96.3492 160.423C96.6059 160.203 96.9616 160.093 97.4162 160.093C98.0102 160.093 98.4576 160.291 98.7582 160.687C99.0662 161.083 99.2202 161.648 99.2202 162.381V166H97.5922V162.513C97.5922 162.139 97.5336 161.864 97.4162 161.688C97.2989 161.505 97.0899 161.413 96.7892 161.413C96.6572 161.413 96.5289 161.431 96.4042 161.468C96.2796 161.497 96.1659 161.549 96.0632 161.622C95.9679 161.695 95.8909 161.787 95.8322 161.897C95.7736 162 95.7442 162.121 95.7442 162.26V166H94.1162ZM107.61 166.418C107.61 166.726 107.555 166.997 107.445 167.232C107.342 167.467 107.17 167.665 106.928 167.826C106.686 167.995 106.363 168.119 105.96 168.2C105.564 168.288 105.073 168.332 104.486 168.332C103.987 168.332 103.562 168.299 103.21 168.233C102.865 168.174 102.583 168.086 102.363 167.969C102.15 167.859 101.993 167.72 101.89 167.551C101.795 167.39 101.747 167.203 101.747 166.99C101.747 166.667 101.842 166.414 102.033 166.231C102.224 166.048 102.488 165.934 102.825 165.89V165.769C102.546 165.718 102.337 165.6 102.198 165.417C102.059 165.226 101.989 165.006 101.989 164.757C101.989 164.603 102.018 164.471 102.077 164.361C102.143 164.244 102.224 164.145 102.319 164.064C102.422 163.976 102.539 163.906 102.671 163.855C102.803 163.804 102.935 163.763 103.067 163.734V163.69C102.715 163.529 102.455 163.309 102.286 163.03C102.117 162.744 102.033 162.414 102.033 162.04C102.033 161.453 102.235 160.984 102.638 160.632C103.049 160.273 103.672 160.093 104.508 160.093C104.889 160.093 105.216 160.13 105.487 160.203V159.983C105.487 159.675 105.56 159.455 105.707 159.323C105.861 159.184 106.077 159.114 106.356 159.114H107.269V160.324H105.993V160.39C106.33 160.551 106.58 160.775 106.741 161.061C106.902 161.34 106.983 161.666 106.983 162.04C106.983 162.619 106.778 163.085 106.367 163.437C105.964 163.782 105.344 163.954 104.508 163.954C104.134 163.954 103.793 163.914 103.485 163.833C103.316 163.943 103.232 164.097 103.232 164.295C103.232 164.434 103.283 164.544 103.386 164.625C103.496 164.698 103.676 164.735 103.925 164.735H105.597C106.301 164.735 106.811 164.882 107.126 165.175C107.449 165.468 107.61 165.883 107.61 166.418ZM106.081 166.638C106.081 166.469 106.015 166.341 105.883 166.253C105.751 166.165 105.52 166.121 105.19 166.121H103.21C103.137 166.194 103.082 166.275 103.045 166.363C103.016 166.458 103.001 166.55 103.001 166.638C103.001 166.851 103.093 167.005 103.276 167.1C103.459 167.203 103.771 167.254 104.211 167.254H104.871C105.311 167.254 105.623 167.203 105.806 167.1C105.989 167.005 106.081 166.851 106.081 166.638ZM104.508 162.887C104.831 162.887 105.069 162.821 105.223 162.689C105.384 162.55 105.465 162.352 105.465 162.095V161.963C105.465 161.706 105.384 161.512 105.223 161.38C105.069 161.241 104.831 161.171 104.508 161.171C104.185 161.171 103.943 161.241 103.782 161.38C103.628 161.512 103.551 161.706 103.551 161.963V162.095C103.551 162.352 103.628 162.55 103.782 162.689C103.943 162.821 104.185 162.887 104.508 162.887ZM110.742 159.609C110.412 159.609 110.17 159.536 110.016 159.389C109.87 159.235 109.796 159.041 109.796 158.806V158.564C109.796 158.329 109.87 158.139 110.016 157.992C110.17 157.838 110.412 157.761 110.742 157.761C111.072 157.761 111.311 157.838 111.457 157.992C111.611 158.139 111.688 158.329 111.688 158.564V158.806C111.688 159.041 111.611 159.235 111.457 159.389C111.311 159.536 111.072 159.609 110.742 159.609ZM109.928 160.225H111.556V166H109.928V160.225ZM114.671 166V160.225H116.299V161.204H116.365C116.467 160.903 116.647 160.643 116.904 160.423C117.16 160.203 117.516 160.093 117.971 160.093C118.565 160.093 119.012 160.291 119.313 160.687C119.621 161.083 119.775 161.648 119.775 162.381V166H118.147V162.513C118.147 162.139 118.088 161.864 117.971 161.688C117.853 161.505 117.644 161.413 117.344 161.413C117.212 161.413 117.083 161.431 116.959 161.468C116.834 161.497 116.72 161.549 116.618 161.622C116.522 161.695 116.445 161.787 116.387 161.897C116.328 162 116.299 162.121 116.299 162.26V166H114.671ZM125.227 166.132C124.787 166.132 124.395 166.062 124.05 165.923C123.706 165.776 123.412 165.575 123.17 165.318C122.936 165.054 122.756 164.735 122.631 164.361C122.514 163.987 122.455 163.569 122.455 163.107C122.455 162.652 122.514 162.242 122.631 161.875C122.749 161.501 122.921 161.182 123.148 160.918C123.383 160.654 123.669 160.452 124.006 160.313C124.344 160.166 124.729 160.093 125.161 160.093C125.638 160.093 126.045 160.174 126.382 160.335C126.727 160.496 127.006 160.713 127.218 160.984C127.438 161.255 127.596 161.571 127.691 161.93C127.794 162.282 127.845 162.652 127.845 163.041V163.525H124.138V163.613C124.138 163.994 124.241 164.299 124.446 164.526C124.652 164.746 124.974 164.856 125.414 164.856C125.752 164.856 126.027 164.79 126.239 164.658C126.452 164.519 126.65 164.354 126.833 164.163L127.647 165.175C127.391 165.476 127.053 165.71 126.635 165.879C126.225 166.048 125.755 166.132 125.227 166.132ZM125.194 161.292C124.864 161.292 124.604 161.402 124.413 161.622C124.23 161.835 124.138 162.121 124.138 162.48V162.568H126.162V162.469C126.162 162.117 126.082 161.835 125.92 161.622C125.766 161.402 125.524 161.292 125.194 161.292ZM132.999 166.132C132.559 166.132 132.167 166.062 131.822 165.923C131.478 165.776 131.184 165.575 130.942 165.318C130.708 165.054 130.528 164.735 130.403 164.361C130.286 163.987 130.227 163.569 130.227 163.107C130.227 162.652 130.286 162.242 130.403 161.875C130.521 161.501 130.693 161.182 130.92 160.918C131.155 160.654 131.441 160.452 131.778 160.313C132.116 160.166 132.501 160.093 132.933 160.093C133.41 160.093 133.817 160.174 134.154 160.335C134.499 160.496 134.778 160.713 134.99 160.984C135.21 161.255 135.368 161.571 135.463 161.93C135.566 162.282 135.617 162.652 135.617 163.041V163.525H131.91V163.613C131.91 163.994 132.013 164.299 132.218 164.526C132.424 164.746 132.746 164.856 133.186 164.856C133.524 164.856 133.799 164.79 134.011 164.658C134.224 164.519 134.422 164.354 134.605 164.163L135.419 165.175C135.163 165.476 134.825 165.71 134.407 165.879C133.997 166.048 133.527 166.132 132.999 166.132ZM132.966 161.292C132.636 161.292 132.376 161.402 132.185 161.622C132.002 161.835 131.91 162.121 131.91 162.48V162.568H133.934V162.469C133.934 162.117 133.854 161.835 133.692 161.622C133.538 161.402 133.296 161.292 132.966 161.292ZM138.362 166V160.225H139.99V161.479H140.045C140.074 161.318 140.126 161.164 140.199 161.017C140.272 160.863 140.368 160.727 140.485 160.61C140.61 160.493 140.756 160.401 140.925 160.335C141.094 160.262 141.292 160.225 141.519 160.225H141.805V161.743H141.398C140.921 161.743 140.566 161.805 140.331 161.93C140.104 162.055 139.99 162.286 139.99 162.623V166H138.362ZM21.847 176.322H25.576C26.214 176.322 26.709 176.502 27.061 176.861C27.4203 177.22 27.6 177.697 27.6 178.291C27.6 178.584 27.5597 178.834 27.479 179.039C27.4057 179.244 27.303 179.413 27.171 179.545C27.0463 179.677 26.896 179.776 26.72 179.842C26.5513 179.901 26.368 179.934 26.17 179.941V180.007C26.3533 180.007 26.544 180.04 26.742 180.106C26.9473 180.172 27.1343 180.278 27.303 180.425C27.4717 180.564 27.611 180.748 27.721 180.975C27.8383 181.202 27.897 181.481 27.897 181.811C27.897 182.112 27.8457 182.398 27.743 182.669C27.6477 182.933 27.512 183.164 27.336 183.362C27.16 183.56 26.951 183.718 26.709 183.835C26.467 183.945 26.203 184 25.917 184H21.847V176.322ZM23.519 182.592H25.444C25.664 182.592 25.8363 182.533 25.961 182.416C26.093 182.291 26.159 182.119 26.159 181.899V181.525C26.159 181.305 26.093 181.136 25.961 181.019C25.8363 180.894 25.664 180.832 25.444 180.832H23.519V182.592ZM23.519 179.468H25.18C25.4 179.468 25.5723 179.406 25.697 179.281C25.8217 179.156 25.884 178.984 25.884 178.764V178.434C25.884 178.214 25.8217 178.042 25.697 177.917C25.5723 177.792 25.4 177.73 25.18 177.73H23.519V179.468ZM34.9589 184C34.6656 184 34.4199 183.908 34.2219 183.725C34.0312 183.542 33.9102 183.296 33.8589 182.988H33.7929C33.7049 183.362 33.5106 183.648 33.2099 183.846C32.9092 184.037 32.5389 184.132 32.0989 184.132C31.5196 184.132 31.0759 183.978 30.7679 183.67C30.4599 183.362 30.3059 182.955 30.3059 182.449C30.3059 181.84 30.5259 181.389 30.9659 181.096C31.4132 180.795 32.0182 180.645 32.7809 180.645H33.6939V180.282C33.6939 180.003 33.6206 179.783 33.4739 179.622C33.3272 179.453 33.0816 179.369 32.7369 179.369C32.4142 179.369 32.1576 179.439 31.9669 179.578C31.7762 179.717 31.6186 179.875 31.4939 180.051L30.5259 179.193C30.7606 178.848 31.0539 178.581 31.4059 178.39C31.7652 178.192 32.2492 178.093 32.8579 178.093C33.6792 178.093 34.2952 178.273 34.7059 178.632C35.1166 178.991 35.3219 179.516 35.3219 180.205V182.735H35.8609V184H34.9589ZM32.7039 182.999C32.9752 182.999 33.2062 182.94 33.3969 182.823C33.5949 182.706 33.6939 182.515 33.6939 182.251V181.569H32.9019C32.2639 181.569 31.9449 181.785 31.9449 182.218V182.383C31.9449 182.596 32.0109 182.753 32.1429 182.856C32.2749 182.951 32.4619 182.999 32.7039 182.999ZM40.1656 184C39.6083 184 39.1976 183.864 38.9336 183.593C38.6769 183.322 38.5486 182.929 38.5486 182.416V175.86H40.1766V182.735H40.9026V184H40.1656ZM43.4737 184V178.225H45.1017V179.204H45.1677C45.2704 178.903 45.45 178.643 45.7067 178.423C45.9634 178.203 46.319 178.093 46.7737 178.093C47.3677 178.093 47.815 178.291 48.1157 178.687C48.4237 179.083 48.5777 179.648 48.5777 180.381V184H46.9497V180.513C46.9497 180.139 46.891 179.864 46.7737 179.688C46.6564 179.505 46.4474 179.413 46.1467 179.413C46.0147 179.413 45.8864 179.431 45.7617 179.468C45.637 179.497 45.5234 179.549 45.4207 179.622C45.3254 179.695 45.2484 179.787 45.1897 179.897C45.131 180 45.1017 180.121 45.1017 180.26V184H43.4737ZM53.9534 184.132C53.5208 184.132 53.1358 184.062 52.7984 183.923C52.4611 183.776 52.1788 183.575 51.9514 183.318C51.7241 183.054 51.5518 182.735 51.4344 182.361C51.3171 181.987 51.2584 181.569 51.2584 181.107C51.2584 180.645 51.3171 180.231 51.4344 179.864C51.5518 179.49 51.7241 179.171 51.9514 178.907C52.1788 178.643 52.4611 178.441 52.7984 178.302C53.1358 178.163 53.5208 178.093 53.9534 178.093C54.5401 178.093 55.0278 178.225 55.4164 178.489C55.8124 178.753 56.0948 179.123 56.2634 179.6L54.9434 180.172C54.8921 179.952 54.7858 179.765 54.6244 179.611C54.4631 179.457 54.2394 179.38 53.9534 179.38C53.6234 179.38 53.3741 179.49 53.2054 179.71C53.0368 179.923 52.9524 180.212 52.9524 180.579V181.657C52.9524 182.024 53.0368 182.313 53.2054 182.526C53.3741 182.739 53.6234 182.845 53.9534 182.845C54.2468 182.845 54.4778 182.768 54.6464 182.614C54.8224 182.453 54.9508 182.244 55.0314 181.987L56.2964 182.537C56.1058 183.087 55.8088 183.49 55.4054 183.747C55.0094 184.004 54.5254 184.132 53.9534 184.132ZM66.2836 184.132C65.763 184.132 65.2936 184.051 64.8756 183.89C64.4576 183.721 64.102 183.476 63.8086 183.153C63.5153 182.823 63.288 182.416 63.1266 181.932C62.9653 181.441 62.8846 180.869 62.8846 180.216C62.8846 179.571 62.9653 178.999 63.1266 178.5C63.288 177.994 63.5153 177.572 63.8086 177.235C64.102 176.89 64.4576 176.63 64.8756 176.454C65.2936 176.278 65.763 176.19 66.2836 176.19C66.995 176.19 67.5816 176.337 68.0436 176.63C68.5056 176.916 68.876 177.371 69.1546 177.994L67.7136 178.742C67.611 178.419 67.4496 178.163 67.2296 177.972C67.017 177.774 66.7016 177.675 66.2836 177.675C65.7923 177.675 65.3963 177.836 65.0956 178.159C64.8023 178.474 64.6556 178.936 64.6556 179.545V180.777C64.6556 181.386 64.8023 181.851 65.0956 182.174C65.3963 182.489 65.7923 182.647 66.2836 182.647C66.6943 182.647 67.0206 182.537 67.2626 182.317C67.512 182.09 67.6953 181.818 67.8126 181.503L69.1766 182.295C68.8906 182.882 68.513 183.336 68.0436 183.659C67.5816 183.974 66.995 184.132 66.2836 184.132ZM76.1217 184C75.8284 184 75.5827 183.908 75.3847 183.725C75.194 183.542 75.073 183.296 75.0217 182.988H74.9557C74.8677 183.362 74.6734 183.648 74.3727 183.846C74.072 184.037 73.7017 184.132 73.2617 184.132C72.6824 184.132 72.2387 183.978 71.9307 183.67C71.6227 183.362 71.4687 182.955 71.4687 182.449C71.4687 181.84 71.6887 181.389 72.1287 181.096C72.576 180.795 73.181 180.645 73.9437 180.645H74.8567V180.282C74.8567 180.003 74.7834 179.783 74.6367 179.622C74.49 179.453 74.2444 179.369 73.8997 179.369C73.577 179.369 73.3204 179.439 73.1297 179.578C72.939 179.717 72.7814 179.875 72.6567 180.051L71.6887 179.193C71.9234 178.848 72.2167 178.581 72.5687 178.39C72.928 178.192 73.412 178.093 74.0207 178.093C74.842 178.093 75.458 178.273 75.8687 178.632C76.2794 178.991 76.4847 179.516 76.4847 180.205V182.735H77.0237V184H76.1217ZM73.8667 182.999C74.138 182.999 74.369 182.94 74.5597 182.823C74.7577 182.706 74.8567 182.515 74.8567 182.251V181.569H74.0647C73.4267 181.569 73.1077 181.785 73.1077 182.218V182.383C73.1077 182.596 73.1737 182.753 73.3057 182.856C73.4377 182.951 73.6247 182.999 73.8667 182.999ZM79.7114 184V178.225H81.3394V179.479H81.3944C81.4237 179.318 81.4751 179.164 81.5484 179.017C81.6217 178.863 81.7171 178.727 81.8344 178.61C81.9591 178.493 82.1057 178.401 82.2744 178.335C82.4431 178.262 82.6411 178.225 82.8684 178.225H83.1544V179.743H82.7474C82.2707 179.743 81.9151 179.805 81.6804 179.93C81.4531 180.055 81.3394 180.286 81.3394 180.623V184H79.7114ZM88.1089 184.132C87.6689 184.132 87.2766 184.062 86.9319 183.923C86.5873 183.776 86.2939 183.575 86.0519 183.318C85.8173 183.054 85.6376 182.735 85.5129 182.361C85.3956 181.987 85.3369 181.569 85.3369 181.107C85.3369 180.652 85.3956 180.242 85.5129 179.875C85.6303 179.501 85.8026 179.182 86.0299 178.918C86.2646 178.654 86.5506 178.452 86.8879 178.313C87.2253 178.166 87.6103 178.093 88.0429 178.093C88.5196 178.093 88.9266 178.174 89.2639 178.335C89.6086 178.496 89.8873 178.713 90.0999 178.984C90.3199 179.255 90.4776 179.571 90.5729 179.93C90.6756 180.282 90.7269 180.652 90.7269 181.041V181.525H87.0199V181.613C87.0199 181.994 87.1226 182.299 87.3279 182.526C87.5333 182.746 87.8559 182.856 88.2959 182.856C88.6333 182.856 88.9083 182.79 89.1209 182.658C89.3336 182.519 89.5316 182.354 89.7149 182.163L90.5289 183.175C90.2723 183.476 89.9349 183.71 89.5169 183.879C89.1063 184.048 88.6369 184.132 88.1089 184.132ZM88.0759 179.292C87.7459 179.292 87.4856 179.402 87.2949 179.622C87.1116 179.835 87.0199 180.121 87.0199 180.48V180.568H89.0439V180.469C89.0439 180.117 88.9633 179.835 88.8019 179.622C88.6479 179.402 88.4059 179.292 88.0759 179.292ZM97.7543 184V176.322H99.4263V182.515H102.352V184H97.7543ZM106.903 184C106.339 184 105.91 183.857 105.616 183.571C105.33 183.285 105.187 182.867 105.187 182.317V179.49H104.373V178.225H104.78C105 178.225 105.151 178.174 105.231 178.071C105.312 177.961 105.352 177.807 105.352 177.609V176.663H106.815V178.225H107.959V179.49H106.815V182.735H107.871V184H106.903ZM114.184 183.032H114.129C114.085 183.186 114.016 183.333 113.92 183.472C113.825 183.604 113.708 183.721 113.568 183.824C113.436 183.919 113.282 183.993 113.106 184.044C112.938 184.103 112.762 184.132 112.578 184.132C111.845 184.132 111.291 183.875 110.917 183.362C110.543 182.841 110.356 182.09 110.356 181.107C110.356 180.124 110.543 179.376 110.917 178.863C111.291 178.35 111.845 178.093 112.578 178.093C112.952 178.093 113.282 178.196 113.568 178.401C113.862 178.606 114.049 178.87 114.129 179.193H114.184V175.86H115.812V184H114.184V183.032ZM113.117 182.812C113.425 182.812 113.678 182.739 113.876 182.592C114.082 182.438 114.184 182.229 114.184 181.965V180.26C114.184 179.996 114.082 179.791 113.876 179.644C113.678 179.49 113.425 179.413 113.117 179.413C112.809 179.413 112.553 179.523 112.347 179.743C112.149 179.956 112.05 180.245 112.05 180.612V181.613C112.05 181.98 112.149 182.273 112.347 182.493C112.553 182.706 112.809 182.812 113.117 182.812ZM119.876 184.121C119.546 184.121 119.3 184.04 119.139 183.879C118.985 183.71 118.908 183.498 118.908 183.241V183.021C118.908 182.764 118.985 182.555 119.139 182.394C119.3 182.225 119.546 182.141 119.876 182.141C120.206 182.141 120.448 182.225 120.602 182.394C120.763 182.555 120.844 182.764 120.844 183.021V183.241C120.844 183.498 120.763 183.71 120.602 183.879C120.448 184.04 120.206 184.121 119.876 184.121Z" fill="#292929"/>
<path d="M28.163 239H21.741V237.219L24.536 234.827C24.7873 234.61 24.9997 234.415 25.173 234.242C25.3463 234.06 25.485 233.887 25.589 233.722C25.7017 233.549 25.7797 233.38 25.823 233.215C25.875 233.05 25.901 232.873 25.901 232.682V232.5C25.901 232.327 25.8663 232.175 25.797 232.045C25.7277 231.915 25.6367 231.807 25.524 231.72C25.4113 231.633 25.2813 231.568 25.134 231.525C24.9953 231.482 24.8523 231.46 24.705 231.46C24.4883 231.46 24.2977 231.495 24.133 231.564C23.977 231.633 23.8383 231.729 23.717 231.85C23.6043 231.963 23.509 232.097 23.431 232.253C23.353 232.4 23.2923 232.561 23.249 232.734L21.546 232.084C21.65 231.772 21.793 231.477 21.975 231.2C22.157 230.914 22.3823 230.667 22.651 230.459C22.9283 230.242 23.2533 230.073 23.626 229.952C23.9987 229.831 24.419 229.77 24.887 229.77C25.381 229.77 25.8187 229.839 26.2 229.978C26.5813 230.117 26.902 230.307 27.162 230.55C27.4307 230.793 27.6343 231.083 27.773 231.421C27.9117 231.75 27.981 232.11 27.981 232.5C27.981 232.89 27.916 233.245 27.786 233.566C27.656 233.887 27.4783 234.19 27.253 234.476C27.0363 234.753 26.7807 235.018 26.486 235.269C26.1913 235.52 25.8837 235.776 25.563 236.036L23.873 237.362H28.163V239ZM34.5799 239.156C33.3926 239.156 32.5129 238.744 31.9409 237.921C31.3689 237.098 31.0829 235.945 31.0829 234.463C31.0829 232.981 31.3689 231.828 31.9409 231.005C32.5129 230.182 33.3926 229.77 34.5799 229.77C35.7673 229.77 36.6469 230.182 37.2189 231.005C37.7909 231.828 38.0769 232.981 38.0769 234.463C38.0769 235.945 37.7909 237.098 37.2189 237.921C36.6469 238.744 35.7673 239.156 34.5799 239.156ZM34.5799 237.505C35.0999 237.505 35.4596 237.314 35.6589 236.933C35.8583 236.552 35.9579 236.014 35.9579 235.321V233.605C35.9579 232.912 35.8583 232.374 35.6589 231.993C35.4596 231.612 35.0999 231.421 34.5799 231.421C34.0599 231.421 33.7003 231.612 33.5009 231.993C33.3016 232.374 33.2019 232.912 33.2019 233.605V235.321C33.2019 236.014 33.3016 236.552 33.5009 236.933C33.7003 237.314 34.0599 237.505 34.5799 237.505ZM47.5228 239H41.1008V237.219L43.8958 234.827C44.1472 234.61 44.3595 234.415 44.5328 234.242C44.7062 234.06 44.8448 233.887 44.9488 233.722C45.0615 233.549 45.1395 233.38 45.1828 233.215C45.2348 233.05 45.2608 232.873 45.2608 232.682V232.5C45.2608 232.327 45.2262 232.175 45.1568 232.045C45.0875 231.915 44.9965 231.807 44.8838 231.72C44.7712 231.633 44.6412 231.568 44.4938 231.525C44.3552 231.482 44.2122 231.46 44.0648 231.46C43.8482 231.46 43.6575 231.495 43.4928 231.564C43.3368 231.633 43.1982 231.729 43.0768 231.85C42.9642 231.963 42.8688 232.097 42.7908 232.253C42.7128 232.4 42.6522 232.561 42.6088 232.734L40.9058 232.084C41.0098 231.772 41.1528 231.477 41.3348 231.2C41.5168 230.914 41.7422 230.667 42.0108 230.459C42.2882 230.242 42.6132 230.073 42.9858 229.952C43.3585 229.831 43.7788 229.77 44.2468 229.77C44.7408 229.77 45.1785 229.839 45.5598 229.978C45.9412 230.117 46.2618 230.307 46.5218 230.55C46.7905 230.793 46.9942 231.083 47.1328 231.421C47.2715 231.75 47.3408 232.11 47.3408 232.5C47.3408 232.89 47.2758 233.245 47.1458 233.566C47.0158 233.887 46.8382 234.19 46.6128 234.476C46.3962 234.753 46.1405 235.018 45.8458 235.269C45.5512 235.52 45.2435 235.776 44.9228 236.036L43.2328 237.362H47.5228V239ZM53.9398 239.156C52.7524 239.156 51.8728 238.744 51.3008 237.921C50.7288 237.098 50.4428 235.945 50.4428 234.463C50.4428 232.981 50.7288 231.828 51.3008 231.005C51.8728 230.182 52.7524 229.77 53.9398 229.77C55.1271 229.77 56.0068 230.182 56.5788 231.005C57.1508 231.828 57.4368 232.981 57.4368 234.463C57.4368 235.945 57.1508 237.098 56.5788 237.921C56.0068 238.744 55.1271 239.156 53.9398 239.156ZM53.9398 237.505C54.4598 237.505 54.8194 237.314 55.0188 236.933C55.2181 236.552 55.3178 236.014 55.3178 235.321V233.605C55.3178 232.912 55.2181 232.374 55.0188 231.993C54.8194 231.612 54.4598 231.421 53.9398 231.421C53.4198 231.421 53.0601 231.612 52.8608 231.993C52.6614 232.374 52.5618 232.912 52.5618 233.605V235.321C52.5618 236.014 52.6614 236.552 52.8608 236.933C53.0601 237.314 53.4198 237.505 53.9398 237.505ZM60.4087 235.971V234.099H64.2697V235.971H60.4087ZM26.346 270.322V275.778C26.346 276.13 26.2873 276.453 26.17 276.746C26.06 277.032 25.895 277.278 25.675 277.483C25.455 277.681 25.1873 277.839 24.872 277.956C24.564 278.066 24.212 278.121 23.816 278.121C23.4347 278.121 23.0973 278.07 22.804 277.967C22.518 277.864 22.2687 277.718 22.056 277.527C21.8507 277.336 21.682 277.109 21.55 276.845C21.418 276.581 21.3263 276.288 21.275 275.965L22.837 275.657C22.9617 276.324 23.2807 276.658 23.794 276.658C24.036 276.658 24.2413 276.581 24.41 276.427C24.586 276.273 24.674 276.031 24.674 275.701V271.664H22.342V270.322H26.346ZM33.7665 278C33.4732 278 33.2275 277.908 33.0295 277.725C32.8389 277.542 32.7179 277.296 32.6665 276.988H32.6005C32.5125 277.362 32.3182 277.648 32.0175 277.846C31.7169 278.037 31.3465 278.132 30.9065 278.132C30.3272 278.132 29.8835 277.978 29.5755 277.67C29.2675 277.362 29.1135 276.955 29.1135 276.449C29.1135 275.84 29.3335 275.389 29.7735 275.096C30.2209 274.795 30.8259 274.645 31.5885 274.645H32.5015V274.282C32.5015 274.003 32.4282 273.783 32.2815 273.622C32.1349 273.453 31.8892 273.369 31.5445 273.369C31.2219 273.369 30.9652 273.439 30.7745 273.578C30.5839 273.717 30.4262 273.875 30.3015 274.051L29.3335 273.193C29.5682 272.848 29.8615 272.581 30.2135 272.39C30.5729 272.192 31.0569 272.093 31.6655 272.093C32.4869 272.093 33.1029 272.273 33.5135 272.632C33.9242 272.991 34.1295 273.516 34.1295 274.205V276.735H34.6685V278H33.7665ZM31.5115 276.999C31.7829 276.999 32.0139 276.94 32.2045 276.823C32.4025 276.706 32.5015 276.515 32.5015 276.251V275.569H31.7095C31.0715 275.569 30.7525 275.785 30.7525 276.218V276.383C30.7525 276.596 30.8185 276.753 30.9505 276.856C31.0825 276.951 31.2695 276.999 31.5115 276.999ZM38.4808 278L36.5888 272.225H38.1948L38.9098 274.557L39.4488 276.647H39.5368L40.0758 274.557L40.7688 272.225H42.3088L40.4168 278H38.4808ZM48.9341 278C48.6407 278 48.3951 277.908 48.1971 277.725C48.0064 277.542 47.8854 277.296 47.8341 276.988H47.7681C47.6801 277.362 47.4857 277.648 47.1851 277.846C46.8844 278.037 46.5141 278.132 46.0741 278.132C45.4947 278.132 45.0511 277.978 44.7431 277.67C44.4351 277.362 44.2811 276.955 44.2811 276.449C44.2811 275.84 44.5011 275.389 44.9411 275.096C45.3884 274.795 45.9934 274.645 46.7561 274.645H47.6691V274.282C47.6691 274.003 47.5957 273.783 47.4491 273.622C47.3024 273.453 47.0567 273.369 46.7121 273.369C46.3894 273.369 46.1327 273.439 45.9421 273.578C45.7514 273.717 45.5937 273.875 45.4691 274.051L44.5011 273.193C44.7357 272.848 45.0291 272.581 45.3811 272.39C45.7404 272.192 46.2244 272.093 46.8331 272.093C47.6544 272.093 48.2704 272.273 48.6811 272.632C49.0917 272.991 49.2971 273.516 49.2971 274.205V276.735H49.8361V278H48.9341ZM46.6791 276.999C46.9504 276.999 47.1814 276.94 47.3721 276.823C47.5701 276.706 47.6691 276.515 47.6691 276.251V275.569H46.8771C46.2391 275.569 45.9201 275.785 45.9201 276.218V276.383C45.9201 276.596 45.9861 276.753 46.1181 276.856C46.2501 276.951 46.4371 276.999 46.6791 276.999ZM54.4818 278.132C53.9244 278.132 53.4551 278.044 53.0738 277.868C52.6924 277.685 52.3514 277.428 52.0508 277.098L53.0078 276.13C53.2131 276.357 53.4404 276.537 53.6898 276.669C53.9391 276.801 54.2214 276.867 54.5368 276.867C54.8594 276.867 55.0831 276.819 55.2078 276.724C55.3324 276.621 55.3948 276.486 55.3948 276.317C55.3948 276.046 55.2004 275.884 54.8118 275.833L54.1848 275.756C52.8868 275.595 52.2378 275.001 52.2378 273.974C52.2378 273.695 52.2891 273.442 52.3918 273.215C52.5018 272.98 52.6521 272.782 52.8428 272.621C53.0408 272.452 53.2754 272.324 53.5468 272.236C53.8254 272.141 54.1371 272.093 54.4818 272.093C54.7824 272.093 55.0464 272.115 55.2738 272.159C55.5084 272.196 55.7138 272.254 55.8898 272.335C56.0731 272.408 56.2381 272.504 56.3848 272.621C56.5388 272.731 56.6891 272.856 56.8358 272.995L55.9008 273.952C55.7174 273.769 55.5084 273.626 55.2738 273.523C55.0464 273.413 54.8118 273.358 54.5698 273.358C54.2911 273.358 54.0931 273.402 53.9758 273.49C53.8584 273.578 53.7998 273.695 53.7998 273.842C53.7998 273.996 53.8401 274.117 53.9208 274.205C54.0088 274.286 54.1701 274.344 54.4048 274.381L55.0538 274.469C56.3224 274.638 56.9568 275.217 56.9568 276.207C56.9568 276.486 56.8981 276.742 56.7808 276.977C56.6634 277.212 56.4948 277.417 56.2748 277.593C56.0621 277.762 55.8018 277.894 55.4938 277.989C55.1931 278.084 54.8558 278.132 54.4818 278.132ZM61.9937 278.132C61.5611 278.132 61.1761 278.062 60.8387 277.923C60.5014 277.776 60.2191 277.575 59.9917 277.318C59.7644 277.054 59.5921 276.735 59.4747 276.361C59.3574 275.987 59.2987 275.569 59.2987 275.107C59.2987 274.645 59.3574 274.231 59.4747 273.864C59.5921 273.49 59.7644 273.171 59.9917 272.907C60.2191 272.643 60.5014 272.441 60.8387 272.302C61.1761 272.163 61.5611 272.093 61.9937 272.093C62.5804 272.093 63.0681 272.225 63.4567 272.489C63.8527 272.753 64.1351 273.123 64.3037 273.6L62.9837 274.172C62.9324 273.952 62.8261 273.765 62.6647 273.611C62.5034 273.457 62.2797 273.38 61.9937 273.38C61.6637 273.38 61.4144 273.49 61.2457 273.71C61.0771 273.923 60.9927 274.212 60.9927 274.579V275.657C60.9927 276.024 61.0771 276.313 61.2457 276.526C61.4144 276.739 61.6637 276.845 61.9937 276.845C62.2871 276.845 62.5181 276.768 62.6867 276.614C62.8627 276.453 62.9911 276.244 63.0717 275.987L64.3367 276.537C64.1461 277.087 63.8491 277.49 63.4457 277.747C63.0497 278.004 62.5657 278.132 61.9937 278.132ZM66.9394 278V272.225H68.5674V273.479H68.6224C68.6517 273.318 68.703 273.164 68.7764 273.017C68.8497 272.863 68.945 272.727 69.0624 272.61C69.187 272.493 69.3337 272.401 69.5024 272.335C69.671 272.262 69.869 272.225 70.0964 272.225H70.3824V273.743H69.9754C69.4987 273.743 69.143 273.805 68.9084 273.93C68.681 274.055 68.5674 274.286 68.5674 274.623V278H66.9394ZM73.7956 271.609C73.4656 271.609 73.2236 271.536 73.0696 271.389C72.923 271.235 72.8496 271.041 72.8496 270.806V270.564C72.8496 270.329 72.923 270.139 73.0696 269.992C73.2236 269.838 73.4656 269.761 73.7956 269.761C74.1256 269.761 74.364 269.838 74.5106 269.992C74.6646 270.139 74.7416 270.329 74.7416 270.564V270.806C74.7416 271.041 74.6646 271.235 74.5106 271.389C74.364 271.536 74.1256 271.609 73.7956 271.609ZM72.9816 272.225H74.6096V278H72.9816V272.225ZM77.7241 272.225H79.3521V273.193H79.4071C79.4877 272.87 79.6711 272.606 79.9571 272.401C80.2504 272.196 80.5841 272.093 80.9581 272.093C81.6914 272.093 82.2451 272.35 82.6191 272.863C82.9931 273.376 83.1801 274.124 83.1801 275.107C83.1801 276.09 82.9931 276.841 82.6191 277.362C82.2451 277.875 81.6914 278.132 80.9581 278.132C80.7674 278.132 80.5877 278.103 80.4191 278.044C80.2504 277.993 80.0964 277.919 79.9571 277.824C79.8251 277.721 79.7114 277.604 79.6161 277.472C79.5207 277.333 79.4511 277.186 79.4071 277.032H79.3521V280.2H77.7241V272.225ZM80.4191 276.812C80.7271 276.812 80.9801 276.706 81.1781 276.493C81.3834 276.273 81.4861 275.98 81.4861 275.613V274.612C81.4861 274.245 81.3834 273.956 81.1781 273.743C80.9801 273.523 80.7271 273.413 80.4191 273.413C80.1111 273.413 79.8544 273.49 79.6491 273.644C79.4511 273.791 79.3521 273.996 79.3521 274.26V275.965C79.3521 276.229 79.4511 276.438 79.6491 276.592C79.8544 276.739 80.1111 276.812 80.4191 276.812ZM87.971 278C87.4063 278 86.9773 277.857 86.684 277.571C86.398 277.285 86.255 276.867 86.255 276.317V273.49H85.441V272.225H85.848C86.068 272.225 86.2183 272.174 86.299 272.071C86.3797 271.961 86.42 271.807 86.42 271.609V270.663H87.883V272.225H89.027V273.49H87.883V276.735H88.939V278H87.971ZM96.0356 270.322H98.9286C99.4346 270.322 99.8966 270.403 100.315 270.564C100.733 270.725 101.088 270.967 101.382 271.29C101.675 271.605 101.902 272.005 102.064 272.489C102.225 272.966 102.306 273.523 102.306 274.161C102.306 274.799 102.225 275.36 102.064 275.844C101.902 276.321 101.675 276.72 101.382 277.043C101.088 277.358 100.733 277.597 100.315 277.758C99.8966 277.919 99.4346 278 98.9286 278H96.0356V270.322ZM98.9286 276.515C99.4272 276.515 99.8196 276.376 100.106 276.097C100.392 275.818 100.535 275.371 100.535 274.755V273.567C100.535 272.951 100.392 272.504 100.106 272.225C99.8196 271.946 99.4272 271.807 98.9286 271.807H97.7076V276.515H98.9286ZM107.621 278.132C107.181 278.132 106.789 278.062 106.444 277.923C106.1 277.776 105.806 277.575 105.564 277.318C105.33 277.054 105.15 276.735 105.025 276.361C104.908 275.987 104.849 275.569 104.849 275.107C104.849 274.652 104.908 274.242 105.025 273.875C105.143 273.501 105.315 273.182 105.542 272.918C105.777 272.654 106.063 272.452 106.4 272.313C106.738 272.166 107.123 272.093 107.555 272.093C108.032 272.093 108.439 272.174 108.776 272.335C109.121 272.496 109.4 272.713 109.612 272.984C109.832 273.255 109.99 273.571 110.085 273.93C110.188 274.282 110.239 274.652 110.239 275.041V275.525H106.532V275.613C106.532 275.994 106.635 276.299 106.84 276.526C107.046 276.746 107.368 276.856 107.808 276.856C108.146 276.856 108.421 276.79 108.633 276.658C108.846 276.519 109.044 276.354 109.227 276.163L110.041 277.175C109.785 277.476 109.447 277.71 109.029 277.879C108.619 278.048 108.149 278.132 107.621 278.132ZM107.588 273.292C107.258 273.292 106.998 273.402 106.807 273.622C106.624 273.835 106.532 274.121 106.532 274.48V274.568H108.556V274.469C108.556 274.117 108.476 273.835 108.314 273.622C108.16 273.402 107.918 273.292 107.588 273.292ZM114.109 278L112.217 272.225H113.823L114.538 274.557L115.077 276.647H115.165L115.704 274.557L116.397 272.225H117.937L116.045 278H114.109ZM122.714 278.132C122.274 278.132 121.881 278.062 121.537 277.923C121.192 277.776 120.899 277.575 120.657 277.318C120.422 277.054 120.242 276.735 120.118 276.361C120 275.987 119.942 275.569 119.942 275.107C119.942 274.652 120 274.242 120.118 273.875C120.235 273.501 120.407 273.182 120.635 272.918C120.869 272.654 121.155 272.452 121.493 272.313C121.83 272.166 122.215 272.093 122.648 272.093C123.124 272.093 123.531 272.174 123.869 272.335C124.213 272.496 124.492 272.713 124.705 272.984C124.925 273.255 125.082 273.571 125.178 273.93C125.28 274.282 125.332 274.652 125.332 275.041V275.525H121.625V275.613C121.625 275.994 121.727 276.299 121.933 276.526C122.138 276.746 122.461 276.856 122.901 276.856C123.238 276.856 123.513 276.79 123.726 276.658C123.938 276.519 124.136 276.354 124.32 276.163L125.134 277.175C124.877 277.476 124.54 277.71 124.122 277.879C123.711 278.048 123.242 278.132 122.714 278.132ZM122.681 273.292C122.351 273.292 122.09 273.402 121.9 273.622C121.716 273.835 121.625 274.121 121.625 274.48V274.568H123.649V274.469C123.649 274.117 123.568 273.835 123.407 273.622C123.253 273.402 123.011 273.292 122.681 273.292ZM129.694 278C129.136 278 128.726 277.864 128.462 277.593C128.205 277.322 128.077 276.929 128.077 276.416V269.86H129.705V276.735H130.431V278H129.694ZM135.345 278.132C134.919 278.132 134.538 278.062 134.201 277.923C133.871 277.784 133.588 277.582 133.354 277.318C133.126 277.054 132.95 276.735 132.826 276.361C132.701 275.987 132.639 275.569 132.639 275.107C132.639 274.645 132.701 274.227 132.826 273.853C132.95 273.479 133.126 273.164 133.354 272.907C133.588 272.643 133.871 272.441 134.201 272.302C134.538 272.163 134.919 272.093 135.345 272.093C135.77 272.093 136.148 272.163 136.478 272.302C136.815 272.441 137.097 272.643 137.325 272.907C137.559 273.164 137.739 273.479 137.864 273.853C137.988 274.227 138.051 274.645 138.051 275.107C138.051 275.569 137.988 275.987 137.864 276.361C137.739 276.735 137.559 277.054 137.325 277.318C137.097 277.582 136.815 277.784 136.478 277.923C136.148 278.062 135.77 278.132 135.345 278.132ZM135.345 276.845C135.667 276.845 135.917 276.746 136.093 276.548C136.269 276.35 136.357 276.068 136.357 275.701V274.524C136.357 274.157 136.269 273.875 136.093 273.677C135.917 273.479 135.667 273.38 135.345 273.38C135.022 273.38 134.773 273.479 134.597 273.677C134.421 273.875 134.333 274.157 134.333 274.524V275.701C134.333 276.068 134.421 276.35 134.597 276.548C134.773 276.746 135.022 276.845 135.345 276.845ZM140.806 272.225H142.434V273.193H142.489C142.569 272.87 142.753 272.606 143.039 272.401C143.332 272.196 143.666 272.093 144.04 272.093C144.773 272.093 145.327 272.35 145.701 272.863C146.075 273.376 146.262 274.124 146.262 275.107C146.262 276.09 146.075 276.841 145.701 277.362C145.327 277.875 144.773 278.132 144.04 278.132C143.849 278.132 143.669 278.103 143.501 278.044C143.332 277.993 143.178 277.919 143.039 277.824C142.907 277.721 142.793 277.604 142.698 277.472C142.602 277.333 142.533 277.186 142.489 277.032H142.434V280.2H140.806V272.225ZM143.501 276.812C143.809 276.812 144.062 276.706 144.26 276.493C144.465 276.273 144.568 275.98 144.568 275.613V274.612C144.568 274.245 144.465 273.956 144.26 273.743C144.062 273.523 143.809 273.413 143.501 273.413C143.193 273.413 142.936 273.49 142.731 273.644C142.533 273.791 142.434 273.996 142.434 274.26V275.965C142.434 276.229 142.533 276.438 142.731 276.592C142.936 276.739 143.193 276.812 143.501 276.812ZM151.502 278.132C151.062 278.132 150.67 278.062 150.325 277.923C149.98 277.776 149.687 277.575 149.445 277.318C149.21 277.054 149.031 276.735 148.906 276.361C148.789 275.987 148.73 275.569 148.73 275.107C148.73 274.652 148.789 274.242 148.906 273.875C149.023 273.501 149.196 273.182 149.423 272.918C149.658 272.654 149.944 272.452 150.281 272.313C150.618 272.166 151.003 272.093 151.436 272.093C151.913 272.093 152.32 272.174 152.657 272.335C153.002 272.496 153.28 272.713 153.493 272.984C153.713 273.255 153.871 273.571 153.966 273.93C154.069 274.282 154.12 274.652 154.12 275.041V275.525H150.413V275.613C150.413 275.994 150.516 276.299 150.721 276.526C150.926 276.746 151.249 276.856 151.689 276.856C152.026 276.856 152.301 276.79 152.514 276.658C152.727 276.519 152.925 276.354 153.108 276.163L153.922 277.175C153.665 277.476 153.328 277.71 152.91 277.879C152.499 278.048 152.03 278.132 151.502 278.132ZM151.469 273.292C151.139 273.292 150.879 273.402 150.688 273.622C150.505 273.835 150.413 274.121 150.413 274.48V274.568H152.437V274.469C152.437 274.117 152.356 273.835 152.195 273.622C152.041 273.402 151.799 273.292 151.469 273.292ZM156.865 278V272.225H158.493V273.479H158.548C158.577 273.318 158.628 273.164 158.702 273.017C158.775 272.863 158.87 272.727 158.988 272.61C159.112 272.493 159.259 272.401 159.428 272.335C159.596 272.262 159.794 272.225 160.022 272.225H160.308V273.743H159.901C159.424 273.743 159.068 273.805 158.834 273.93C158.606 274.055 158.493 274.286 158.493 274.623V278H156.865ZM21.55 296V294.669H22.54V289.653H21.55V288.322H25.202V289.653H24.212V294.669H25.202V296H21.55ZM28.102 296V290.225H29.73V291.204H29.796C29.8987 290.903 30.0784 290.643 30.335 290.423C30.5917 290.203 30.9474 290.093 31.402 290.093C31.996 290.093 32.4434 290.291 32.744 290.687C33.052 291.083 33.206 291.648 33.206 292.381V296H31.578V292.513C31.578 292.139 31.5194 291.864 31.402 291.688C31.2847 291.505 31.0757 291.413 30.775 291.413C30.643 291.413 30.5147 291.431 30.39 291.468C30.2654 291.497 30.1517 291.549 30.049 291.622C29.9537 291.695 29.8767 291.787 29.818 291.897C29.7594 292 29.73 292.121 29.73 292.26V296H28.102ZM41.0678 296L40.5178 294.174H37.9548L37.4048 296H35.7108L38.2408 288.322H40.3088L42.8058 296H41.0678ZM39.2528 289.84H39.1978L38.3508 292.755H40.1108L39.2528 289.84ZM45.3751 290.225H47.0031V291.193H47.0581C47.1387 290.87 47.3221 290.606 47.6081 290.401C47.9014 290.196 48.2351 290.093 48.6091 290.093C49.3424 290.093 49.8961 290.35 50.2701 290.863C50.6441 291.376 50.8311 292.124 50.8311 293.107C50.8311 294.09 50.6441 294.841 50.2701 295.362C49.8961 295.875 49.3424 296.132 48.6091 296.132C48.4184 296.132 48.2387 296.103 48.0701 296.044C47.9014 295.993 47.7474 295.919 47.6081 295.824C47.4761 295.721 47.3624 295.604 47.2671 295.472C47.1717 295.333 47.1021 295.186 47.0581 295.032H47.0031V298.2H45.3751V290.225ZM48.0701 294.812C48.3781 294.812 48.6311 294.706 48.8291 294.493C49.0344 294.273 49.1371 293.98 49.1371 293.613V292.612C49.1371 292.245 49.0344 291.956 48.8291 291.743C48.6311 291.523 48.3781 291.413 48.0701 291.413C47.7621 291.413 47.5054 291.49 47.3001 291.644C47.1021 291.791 47.0031 291.996 47.0031 292.26V293.965C47.0031 294.229 47.1021 294.438 47.3001 294.592C47.5054 294.739 47.7621 294.812 48.0701 294.812ZM53.6624 290.225H55.2904V291.193H55.3454C55.4261 290.87 55.6094 290.606 55.8954 290.401C56.1888 290.196 56.5224 290.093 56.8964 290.093C57.6298 290.093 58.1834 290.35 58.5574 290.863C58.9314 291.376 59.1184 292.124 59.1184 293.107C59.1184 294.09 58.9314 294.841 58.5574 295.362C58.1834 295.875 57.6298 296.132 56.8964 296.132C56.7058 296.132 56.5261 296.103 56.3574 296.044C56.1888 295.993 56.0348 295.919 55.8954 295.824C55.7634 295.721 55.6498 295.604 55.5544 295.472C55.4591 295.333 55.3894 295.186 55.3454 295.032H55.2904V298.2H53.6624V290.225ZM56.3574 294.812C56.6654 294.812 56.9184 294.706 57.1164 294.493C57.3218 294.273 57.4244 293.98 57.4244 293.613V292.612C57.4244 292.245 57.3218 291.956 57.1164 291.743C56.9184 291.523 56.6654 291.413 56.3574 291.413C56.0494 291.413 55.7928 291.49 55.5874 291.644C55.3894 291.791 55.2904 291.996 55.2904 292.26V293.965C55.2904 294.229 55.3894 294.438 55.5874 294.592C55.7928 294.739 56.0494 294.812 56.3574 294.812ZM65.9354 296V294.669H66.9254V289.653H65.9354V288.322H69.5874V289.653H68.5974V294.669H69.5874V296H65.9354ZM72.4875 296V290.225H74.1155V291.204H74.1815C74.2841 290.903 74.4638 290.643 74.7205 290.423C74.9771 290.203 75.3328 290.093 75.7875 290.093C76.3815 290.093 76.8288 290.291 77.1295 290.687C77.4375 291.083 77.5915 291.648 77.5915 292.381V296H75.9635V292.513C75.9635 292.139 75.9048 291.864 75.7875 291.688C75.6701 291.505 75.4611 291.413 75.1605 291.413C75.0285 291.413 74.9001 291.431 74.7755 291.468C74.6508 291.497 74.5371 291.549 74.4345 291.622C74.3391 291.695 74.2621 291.787 74.2035 291.897C74.1448 292 74.1155 292.121 74.1155 292.26V296H72.4875ZM82.9672 296.132C82.5345 296.132 82.1495 296.062 81.8122 295.923C81.4749 295.776 81.1925 295.575 80.9652 295.318C80.7379 295.054 80.5655 294.735 80.4482 294.361C80.3309 293.987 80.2722 293.569 80.2722 293.107C80.2722 292.645 80.3309 292.231 80.4482 291.864C80.5655 291.49 80.7379 291.171 80.9652 290.907C81.1925 290.643 81.4749 290.441 81.8122 290.302C82.1495 290.163 82.5345 290.093 82.9672 290.093C83.5539 290.093 84.0415 290.225 84.4302 290.489C84.8262 290.753 85.1085 291.123 85.2772 291.6L83.9572 292.172C83.9059 291.952 83.7995 291.765 83.6382 291.611C83.4769 291.457 83.2532 291.38 82.9672 291.38C82.6372 291.38 82.3879 291.49 82.2192 291.71C82.0505 291.923 81.9662 292.212 81.9662 292.579V293.657C81.9662 294.024 82.0505 294.313 82.2192 294.526C82.3879 294.739 82.6372 294.845 82.9672 294.845C83.2605 294.845 83.4915 294.768 83.6602 294.614C83.8362 294.453 83.9645 294.244 84.0452 293.987L85.3102 294.537C85.1195 295.087 84.8225 295.49 84.4192 295.747C84.0232 296.004 83.5392 296.132 82.9672 296.132ZM88.8588 296.121C88.5288 296.121 88.2832 296.04 88.1218 295.879C87.9678 295.71 87.8908 295.498 87.8908 295.241V295.021C87.8908 294.764 87.9678 294.555 88.1218 294.394C88.2832 294.225 88.5288 294.141 88.8588 294.141C89.1888 294.141 89.4308 294.225 89.5848 294.394C89.7462 294.555 89.8268 294.764 89.8268 295.021V295.241C89.8268 295.498 89.7462 295.71 89.5848 295.879C89.4308 296.04 89.1888 296.121 88.8588 296.121Z" fill="#292929"/>
</svg>
